<svg xmlns="http://www.w3.org/2000/svg" width="67" height="65" viewBox="0 0 67 65">
  <g fill="none" fill-rule="evenodd">
    <rect width="67" height="65" fill="#FFF"/>
    <g stroke="#1F4B99" stroke-width="2" transform="translate(.5 1)">
      <g transform="translate(.5)">
        <g transform="translate(0 13.056)">
          <path d="M10.3480765,21.3893407 C9.22913977,21.1508086 8.18533316,20.7076388 7.25718426,20.1006003 L6.30222801,21.0612408 C5.55829042,21.8096066 4.34853952,21.8131964 3.60017373,21.0692588 C3.59749315,21.0665941 3.59482048,21.0639214 3.59215577,21.0612408 C2.84249267,20.3071155 2.84249267,19.0891626 3.59215577,18.3350372 L4.54711202,17.3743967 C3.94366544,16.4407231 3.50311799,15.3907033 3.26599729,14.2651063 L1.92771707,14.2651063 C0.86306833,14.2651063 1.42108547e-13,13.402038 1.38555833e-13,12.3373892 C1.38555833e-13,11.2727405 0.86306833,10.4096722 1.92771707,10.4096722 L3.26599729,10.4096722 C3.50311799,9.28407513 3.94366544,8.23405538 4.54711202,7.30038179 L3.59215577,6.33974127 C2.84249267,5.58561589 2.84249267,4.36766302 3.59215577,3.61353765 C4.33609335,2.86517186 5.54584426,2.8615821 6.29421004,3.60551968 C6.29689062,3.6081844 6.29956329,3.61085707 6.30222801,3.61353765 L7.25718426,4.57417816 C8.18533316,3.96713964 9.22913977,3.52396988 10.3480765,3.28543775 L10.3480765,1.91631046 C10.3480765,0.857961416 11.2060379,1.94415565e-16 12.2643869,0 C13.322736,-1.94415565e-16 14.1806974,0.857961416 14.1806974,1.91631046 L14.1806974,3.28543775 C15.2996341,3.52396988 16.3434407,3.96713964 17.2715896,4.57417816 L18.2265459,3.61353765 C18.9704834,2.86517186 20.1802344,2.8615821 20.9286001,3.60551968 C20.9312807,3.6081844 20.9339534,3.61085707 20.9366181,3.61353765 C21.6862812,4.36766302 21.6862812,5.58561589 20.9366181,6.33974127 L19.9816618,7.30038179 C20.5851084,8.23405538 21.0256559,9.28407513 21.2627766,10.4096722 L22.6010568,10.4096722 C23.6657055,10.4096722 24.5287739,11.2727405 24.5287739,12.3373892 C24.5287739,13.402038 23.6657055,14.2651063 22.6010568,14.2651063 L21.2627766,14.2651063 C21.0256559,15.3907033 20.5851084,16.4407231 19.9816618,17.3743967 L20.9366181,18.3350372 C21.6862812,19.0891626 21.6862812,20.3071155 20.9366181,21.0612408 C20.1926805,21.8096066 18.9829296,21.8131964 18.2345638,21.0692588 C18.2318832,21.0665941 18.2292106,21.0639214 18.2265459,21.0612408 L17.2715896,20.1006003 C16.3434407,20.7076388 15.2996341,21.1508086 14.1806974,21.3893407 L14.1806974,22.758468 C14.1806974,23.8168171 13.322736,24.6747785 12.2643869,24.6747785 C11.2060379,24.6747785 10.3480765,23.8168171 10.3480765,22.758468 L10.3480765,21.3893407 Z"/>
          <ellipse cx="12.264" cy="12.337" rx="6.132" ry="6.169"/>
        </g>
        <g transform="translate(40 13.056)">
          <path d="M10.3480765,21.3893407 C9.22913977,21.1508086 8.18533316,20.7076388 7.25718426,20.1006003 L6.30222801,21.0612408 C5.55829042,21.8096066 4.34853952,21.8131964 3.60017373,21.0692588 C3.59749315,21.0665941 3.59482048,21.0639214 3.59215577,21.0612408 C2.84249267,20.3071155 2.84249267,19.0891626 3.59215577,18.3350372 L4.54711202,17.3743967 C3.94366544,16.4407231 3.50311799,15.3907033 3.26599729,14.2651063 L1.92771707,14.2651063 C0.86306833,14.2651063 -3.80140364e-13,13.402038 -3.80140364e-13,12.3373892 C-3.80140364e-13,11.2727405 0.86306833,10.4096722 1.92771707,10.4096722 L3.26599729,10.4096722 C3.50311799,9.28407513 3.94366544,8.23405538 4.54711202,7.30038179 L3.59215577,6.33974127 C2.84249267,5.58561589 2.84249267,4.36766302 3.59215577,3.61353765 C4.33609335,2.86517186 5.54584426,2.8615821 6.29421004,3.60551968 C6.29689062,3.6081844 6.29956329,3.61085707 6.30222801,3.61353765 L7.25718426,4.57417816 C8.18533316,3.96713964 9.22913977,3.52396988 10.3480765,3.28543775 L10.3480765,1.91631046 C10.3480765,0.857961416 11.2060379,1.94415565e-16 12.2643869,0 C13.322736,-1.94415565e-16 14.1806974,0.857961416 14.1806974,1.91631046 L14.1806974,3.28543775 C15.2996341,3.52396988 16.3434407,3.96713964 17.2715896,4.57417816 L18.2265459,3.61353765 C18.9704834,2.86517186 20.1802344,2.8615821 20.9286001,3.60551968 C20.9312807,3.6081844 20.9339534,3.61085707 20.9366181,3.61353765 C21.6862812,4.36766302 21.6862812,5.58561589 20.9366181,6.33974127 L19.9816618,7.30038179 C20.5851084,8.23405538 21.0256559,9.28407513 21.2627766,10.4096722 L22.6010568,10.4096722 C23.6657055,10.4096722 24.5287739,11.2727405 24.5287739,12.3373892 C24.5287739,13.402038 23.6657055,14.2651063 22.6010568,14.2651063 L21.2627766,14.2651063 C21.0256559,15.3907033 20.5851084,16.4407231 19.9816618,17.3743967 L20.9366181,18.3350372 C21.6862812,19.0891626 21.6862812,20.3071155 20.9366181,21.0612408 C20.1926805,21.8096066 18.9829296,21.8131964 18.2345638,21.0692588 C18.2318832,21.0665941 18.2292106,21.0639214 18.2265459,21.0612408 L17.2715896,20.1006003 C16.3434407,20.7076388 15.2996341,21.1508086 14.1806974,21.3893407 L14.1806974,22.758468 C14.1806974,23.8168171 13.322736,24.6747785 12.2643869,24.6747785 C11.2060379,24.6747785 10.3480765,23.8168171 10.3480765,22.758468 L10.3480765,21.3893407 Z"/>
          <ellipse cx="12.264" cy="12.337" rx="6.132" ry="6.169"/>
        </g>
        <g transform="translate(20)">
          <path d="M10.3480765,21.3893407 C9.22913977,21.1508086 8.18533316,20.7076388 7.25718426,20.1006003 L6.30222801,21.0612408 C5.55829042,21.8096066 4.34853952,21.8131964 3.60017373,21.0692588 C3.59749315,21.0665941 3.59482048,21.0639214 3.59215577,21.0612408 C2.84249267,20.3071155 2.84249267,19.0891626 3.59215577,18.3350372 L4.54711202,17.3743967 C3.94366544,16.4407231 3.50311799,15.3907033 3.26599729,14.2651063 L1.92771707,14.2651063 C0.86306833,14.2651063 -2.30926389e-13,13.402038 -2.30926389e-13,12.3373892 C-2.30926389e-13,11.2727405 0.86306833,10.4096722 1.92771707,10.4096722 L3.26599729,10.4096722 C3.50311799,9.28407513 3.94366544,8.23405538 4.54711202,7.30038179 L3.59215577,6.33974127 C2.84249267,5.58561589 2.84249267,4.36766302 3.59215577,3.61353765 C4.33609335,2.86517186 5.54584426,2.8615821 6.29421004,3.60551968 C6.29689062,3.6081844 6.29956329,3.61085707 6.30222801,3.61353765 L7.25718426,4.57417816 C8.18533316,3.96713964 9.22913977,3.52396988 10.3480765,3.28543775 L10.3480765,1.91631046 C10.3480765,0.857961416 11.2060379,1.94415565e-16 12.2643869,0 C13.322736,-1.94415565e-16 14.1806974,0.857961416 14.1806974,1.91631046 L14.1806974,3.28543775 C15.2996341,3.52396988 16.3434407,3.96713964 17.2715896,4.57417816 L18.2265459,3.61353765 C18.9704834,2.86517186 20.1802344,2.8615821 20.9286001,3.60551968 C20.9312807,3.6081844 20.9339534,3.61085707 20.9366181,3.61353765 C21.6862812,4.36766302 21.6862812,5.58561589 20.9366181,6.33974127 L19.9816618,7.30038179 C20.5851084,8.23405538 21.0256559,9.28407513 21.2627766,10.4096722 L22.6010568,10.4096722 C23.6657055,10.4096722 24.5287739,11.2727405 24.5287739,12.3373892 C24.5287739,13.402038 23.6657055,14.2651063 22.6010568,14.2651063 L21.2627766,14.2651063 C21.0256559,15.3907033 20.5851084,16.4407231 19.9816618,17.3743967 L20.9366181,18.3350372 C21.6862812,19.0891626 21.6862812,20.3071155 20.9366181,21.0612408 C20.1926805,21.8096066 18.9829296,21.8131964 18.2345638,21.0692588 C18.2318832,21.0665941 18.2292106,21.0639214 18.2265459,21.0612408 L17.2715896,20.1006003 C16.3434407,20.7076388 15.2996341,21.1508086 14.1806974,21.3893407 L14.1806974,22.758468 C14.1806974,23.8168171 13.322736,24.6747785 12.2643869,24.6747785 C11.2060379,24.6747785 10.3480765,23.8168171 10.3480765,22.758468 L10.3480765,21.3893407 Z"/>
          <ellipse cx="12.264" cy="12.337" rx="6.132" ry="6.169"/>
        </g>
      </g>
      <g transform="translate(6.5 30)">
        <ellipse cx="27.045" cy="6.081" rx="6.045" ry="6.081"/>
        <path stroke-linecap="round" stroke-linejoin="round" d="M16.9996245,14.5328043 L16.9996245,14.258248 L27.0494975,12.9914145 L36.3778228,14.2675996 L36.3778228,14.530485 C36.4610078,14.5781561 36.5423887,14.6296444 36.6217458,14.684882 C36.6292089,14.6900871 36.6292089,14.6900871 36.6366526,14.6953199 L42.9355813,19.1321306 L49.2345101,14.6953199 C49.2419538,14.6900871 49.2419538,14.6900871 49.2494168,14.684882 C50.7285463,13.6553128 52.7622484,14.0197534 53.7918177,15.4988828 C54.8253066,16.9836435 54.4654815,19.0243464 52.9865075,20.0660994 L44.9479648,25.7282514 C44.9405211,25.7334842 44.9405211,25.7334842 44.9330581,25.7386893 C44.3408562,26.1508999 43.6412974,26.3502666 42.9355813,26.3210183 C42.2298653,26.3502666 41.5303065,26.1508999 40.9381046,25.7386893 C40.9306416,25.7334842 40.9306416,25.7334842 40.9231979,25.7282514 L36.3778228,22.5266008 L36.3778228,33.2179582 L16.9996245,33.2179582 L16.9996245,22.5294468 L12.4582898,25.7282514 C12.4508461,25.7334842 12.4508461,25.7334842 12.443383,25.7386893 C11.8511812,26.1508999 11.1516223,26.3502666 10.4459063,26.3210183 C9.74019029,26.3502666 9.04063144,26.1508999 8.44842959,25.7386893 C8.44096653,25.7334842 8.44096653,25.7334842 8.43352286,25.7282514 L0.39498016,20.0660994 C-1.08399388,19.0243464 -1.4438189,16.9836435 -0.410330012,15.4988828 C0.61923921,14.0197534 2.65294133,13.6553128 4.13207081,14.684882 C4.13953388,14.6900871 4.13953388,14.6900871 4.14697754,14.6953199 L10.4459063,19.1321306 L16.7448351,14.6953199 C16.7522787,14.6900871 16.7522787,14.6900871 16.7597418,14.684882 C16.8378131,14.6305394 16.9178437,14.5798253 16.9996245,14.5328043 Z"/>
      </g>
    </g>
  </g>
</svg>
