<svg xmlns="http://www.w3.org/2000/svg" width="145" height="143" viewBox="0 0 145 143">
  <g fill="#FFF">
    <polygon points=".122 77.5 .122 76.5 144.995 76.5 144.995 77.5"/>
    <path d="M27.4116859 120.940029L29.9059366 120.940029 37.904755 141.893573 35.7088617 141.893573 33.2576513 135.318429 24.0035591 135.318429 21.5243516 141.893573 19.3852882 141.893573 27.4116859 120.940029 27.4116859 120.940029zM28.6092939 122.911945L24.7030692 133.433012 32.5585591 133.433012 28.6092939 122.911945 28.6092939 122.911945zM44.6842363 120.940029L46.7217579 120.940029 46.7217579 133.547507C46.7217579 134.899308 46.7802594 135.884222 46.8926657 136.496816 47.0167723 137.102305 47.2123343 137.62464 47.4772622 138.066326 47.9059942 138.747032 48.4475504 139.269784 49.1036023 139.634164 49.7688473 139.998963 50.5059654 140.181153 51.314121 140.181153 52.1318876 140.181153 52.8723487 139.998963 53.5380115 139.634164 54.2124496 139.260173 54.7540058 138.737421 55.1639337 138.066326 55.4380548 137.615447 55.6336167 137.087262 55.7485303 136.481772 55.8613545 135.878372 55.919438 134.899308 55.919438 133.547507L55.919438 120.940029 57.9440058 120.940029 57.9440058 134.265821C57.9440058 136.98196 57.4062104 139.006527 56.3331268 140.339107 55.267147 141.673775 53.6412248 142.339438 51.4549424 142.339438 49.1374496 142.339438 47.424611 141.688818 46.3231124 140.382565 45.2291354 139.077983 44.6842363 137.040043 44.6842363 134.265821L44.6842363 120.940029M65.3778674 120.940029L70.9513833 120.940029C73.4138761 120.940029 75.3143372 121.505821 76.6548559 122.637406 77.9949568 123.771081 78.6660519 125.372349 78.6660519 127.445807 78.6660519 129.143184 78.1905187 130.583156 77.2394524 131.76196 76.2879683 132.932824 75.0774063 133.581354 73.6040058 133.705461L78.6944669 141.893573 76.2127522 141.893573 70.0830548 131.792046 72.0361671 131.792046C73.3482709 131.792046 74.4121614 131.402594 75.229928 130.626196 76.0568876 129.848127 76.4705764 128.850259 76.4705764 127.632176 76.4705764 125.990793 76.0079971 124.812406 75.0870173 124.092421 74.1639481 123.362824 72.6002882 122.998444 70.3968732 122.998444L67.4158069 122.998444 67.4158069 141.893573 65.3778674 141.893573 65.3778674 120.940029M92.2592795 120.940029L94.7535303 120.940029 102.751931 141.893573 100.556455 141.893573 98.1035735 135.318429 88.8511527 135.318429 86.3715274 141.893573 84.232464 141.893573 92.2592795 120.940029 92.2592795 120.940029zM93.4564697 122.911945L89.5506628 133.433012 97.4057349 133.433012 93.4564697 122.911945 93.4564697 122.911945z"/>
    <polyline points="109.56 120.94 112.011 120.94 123.218 139.39 123.218 120.94 125.184 120.94 125.184 141.894 122.718 141.894 111.513 123.415 111.513 141.894 109.56 141.894 109.56 120.94"/>
    <polyline points="17.034 73.825 17.034 .138 127.25 .138 127.25 73.825 117.252 73.782 117.252 10.142 27.322 10.142 27.322 73.699 17.034 73.825"/>
    <polyline points="17.034 83.157 27.489 83.157 27.489 101.063 117.252 101.063 117.252 83.113 127.207 83.113 127.207 111.109 17.075 111.109 17.034 83.157"/>
  </g>
</svg>
