<svg xmlns="http://www.w3.org/2000/svg" width="34" height="32" viewBox="0 0 34 32">
  <path fill="#4580E6" d="M20.925613,14.2456654 C20.7443498,14.6168497 20.3012623,14.7536019 19.938736,14.5973138 C19.4150868,14.3628815 18.8712975,14.2456654 18.2872273,14.2456654 C17.340631,14.2456654 16.1926312,14.5973138 15.608561,16.0820513 L17.6024555,16.0820513 C18.0052625,16.0820513 18.3476485,16.4141635 18.3476485,16.804884 C18.3476485,17.1956044 18.0052625,17.5277167 17.6024555,17.5277167 L15.3064557,17.5277167 C15.2863155,17.7230769 15.2863155,17.9184371 15.2863155,18.1333333 C15.2863155,18.3482295 15.2863155,18.5435897 15.3064557,18.73895 L17.6024555,18.73895 C18.0052625,18.73895 18.3476485,19.0710622 18.3476485,19.4617827 C18.3476485,19.852503 18.0052625,20.1846154 17.6024555,20.1846154 L15.608561,20.1846154 C15.9912277,21.1614164 16.7565609,22.0210012 18.2872273,22.0210012 C18.790736,22.0210012 19.2741045,21.9233212 19.7171921,21.747497 C20.0998588,21.6107447 20.522806,21.786569 20.6839288,22.1577534 C20.8249113,22.5289376 20.6436481,22.939194 20.2609815,23.0954822 C19.6366307,23.3299145 18.9518588,23.4666667 18.267087,23.4666667 C17.0586662,23.4666667 16.0315083,23.0759462 15.2460347,22.3335774 C14.682105,21.786569 14.2591577,21.0637362 14.0174735,20.1846154 L13.2118596,20.1846154 C12.8090526,20.1846154 12.4666667,19.852503 12.4666667,19.4617827 C12.4666667,19.0710622 12.8090526,18.73895 13.2118596,18.73895 L13.755649,18.73895 C13.7355086,18.5435897 13.7355086,18.3482295 13.7355086,18.1333333 C13.7355086,17.9184371 13.7355086,17.7230769 13.755649,17.5277167 L13.2118596,17.5277167 C12.8090526,17.5277167 12.4666667,17.1956044 12.4666667,16.804884 C12.4666667,16.4141635 12.8090526,16.0820513 13.2118596,16.0820513 L14.0174735,16.0820513 C14.2591577,15.2224664 14.682105,14.4800977 15.2460347,13.9330891 C16.011368,13.1907204 17.0586662,12.8 18.267087,12.8 C19.072701,12.8 19.8380342,12.9562881 20.5630868,13.2884005 C20.9457533,13.4642247 21.1068761,13.894017 20.925613,14.2456654 Z M7.33333367,25.6666667 L9.60000033,25.6666667 L9.60000033,10.6 L7.33333367,10.6 L7.33333367,25.6666667 Z M5.33333367,25.6666667 L5.33333367,10.6 L1,10.6 C0.44771525,10.6 0,10.1522847 0,9.6 L0,6.65611221 C0,6.23095258 0.268831459,5.85227561 0.670204419,5.71205984 L16.6702044,0.122614298 C16.8837407,0.0480174562 17.1162593,0.0480174562 17.3297956,0.122614298 L33.3297956,5.71205984 C33.7311685,5.85227561 34,6.23095258 34,6.65611221 L34,9.6 C34,10.1522847 33.5522847,10.6 33,10.6 L28.666667,10.6 L28.666667,25.6666667 L30.9333334,25.6666667 C32.0379029,25.6666667 32.9333334,26.5620972 32.9333334,27.6666667 L32.9333334,29.9333334 C32.9333334,31.0379029 32.0379029,31.9333334 30.9333334,31.9333334 L3.06666667,31.9333334 C1.96209717,31.9333334 1.06666667,31.0379029 1.06666667,29.9333334 L1.06666667,27.6666667 C1.06666667,26.5620972 1.96209717,25.6666667 3.06666667,25.6666667 L5.33333367,25.6666667 Z M26.666667,25.6666667 L26.666667,10.6 L24.4000003,10.6 L24.4000003,25.6666667 L26.666667,25.6666667 Z M22.4000003,25.6666667 L22.4000003,10.6 L11.6000003,10.6 L11.6000003,25.6666667 L22.4000003,25.6666667 Z M2,8.6 L32,8.6 L32,7.36603513 L17,2.12592994 L2,7.36603513 L2,8.6 Z M3.06666667,27.6666667 L3.06666667,29.9333334 L30.9333334,29.9333334 L30.9333334,27.6666667 L3.06666667,27.6666667 Z"/>
</svg>
