<svg xmlns="http://www.w3.org/2000/svg" version="1.1" id="svg104" width="50.909" height="64.197">
    <defs id="defs6">
        <style id="style2">
            .cls-1{clip-path:url(#clip-path)}.cls-12,.cls-4,.cls-9{fill:red}.cls-11,.cls-14,.cls-5{fill:none}.cls-12,.cls-14,.cls-5,.cls-9{stroke:#000}.cls-5{stroke-width:.509px}.cls-12,.cls-14{stroke-linejoin:round}.cls-11,.cls-7{stroke:#fff}.cls-7{stroke-width:.034px}.cls-9{stroke-width:.112px}.cls-11{stroke-width:.254px}.cls-12,.cls-14{stroke-width:.094px}
        </style>
        <clipPath id="clip-path">
            <path id="Tracé_894" data-name="Tracé 894" d="M188.112 77.989l1.633-.59 1.86-.771c4.309-1.814 5.171-2.087 9.98-4.173 2.812-1.225 11.7-4.854 11.7-4.854V14.3h-50.4s-.091 44.727-.091 53.3c0 0 15.967 6.714 18.871 7.666" transform="translate(-162.8 -14.3)"/>
        </clipPath>
    </defs>
    <g id="Groupe_3142" data-name="Groupe 3142" transform="translate(-405.522 -19.056)">
        <g id="Groupe_484" data-name="Groupe 484" class="cls-1" transform="translate(405.73 19.266)" clip-path="url(#clip-path)">
            <path id="Tracé_893" data-name="Tracé 893" d="M212.936 70.856L212.8 0H159l.136 70.856z" transform="translate(-160.724 -6.487)" fill="#ffa600"/>
        </g>
        <g id="Groupe_485" data-name="Groupe 485" class="cls-1" transform="translate(405.73 19.266)" clip-path="url(#clip-path)">
            <path id="Tracé_895" data-name="Tracé 895" d="M243.858 103.783l1.724-30.483H219l.045 37.288z" transform="translate(-193.506 -46.536)" fill="#fff"/>
        </g>
        <g id="Groupe_486" data-name="Groupe 486" class="cls-1" transform="translate(405.73 19.266)" clip-path="url(#clip-path)">
            <path id="Rectangle_212" data-name="Rectangle 212" class="cls-4" transform="translate(2.858 -6.487)" fill="red" d="M0 0h2.767v62.645H0z"/>
        </g>
        <g id="Groupe_487" data-name="Groupe 487" class="cls-1" transform="translate(405.73 19.266)" clip-path="url(#clip-path)">
            <path id="Rectangle_213" data-name="Rectangle 213" class="cls-4" transform="translate(8.483 -6.487)" fill="red" d="M0 0h2.767v64.959H0z"/>
        </g>
        <g id="Groupe_488" data-name="Groupe 488" class="cls-1" transform="translate(405.73 19.266)" clip-path="url(#clip-path)">
            <path id="Rectangle_214" data-name="Rectangle 214" class="cls-4" transform="translate(14.062 -6.487)" fill="red" d="M0 0h2.767v67.454H0z"/>
        </g>
        <g id="Groupe_489" data-name="Groupe 489" class="cls-1" transform="translate(405.73 19.266)" clip-path="url(#clip-path)">
            <path id="Rectangle_215" data-name="Rectangle 215" class="cls-4" transform="translate(19.687 -6.487)" fill="red" d="M0 0h2.767v69.45H0z"/>
        </g>
        <path id="Tracé_905" data-name="Tracé 905" d="M456.176 72.611v-53.3h-50.4v53.3l25.494 10.388z" fill="none" stroke="#000" stroke-width=".509" stroke-linecap="round" stroke-linejoin="round"/>
        <g id="Groupe_493" data-name="Groupe 493" transform="translate(436.032 62.496)">
            <path id="Tracé_906" data-name="Tracé 906" class="cls-7" d="M15.287 5.307C14.879 2.041 13.473 0 11.93 0c-1.588 0-2.949 2.4-3.357 5.852" stroke="#fff" stroke-width=".034"/>
            <path id="Tracé_907" data-name="Tracé 907" class="cls-7" d="M6.759 5.852C6.396 2.268 4.99 0 3.311 0 1.811 0 .453 2.177 0 5.4" stroke="#fff" stroke-width=".034"/>
            <path id="Tracé_908" data-name="Tracé 908" d="M10.66 5.534c-.59-2.359-1.769-3.765-3.085-3.765-1.27 0-2.4 1.542-3.039 3.992" stroke="#fff" stroke-width=".085"/>
        </g>
        <path id="Tracé_909" data-name="Tracé 909" class="cls-9" d="M442.61 52.108l-.136-.044h-.408l-.091.045-.091.045-.136.045-.091.045-.136-.045h-.136l-.136-.045-.09-.09-.091-.091-.045-.181-.045-.091v-.137h-.045l-.091.045v.136l.045.136.045.181.045.136.091.091.091.091.091.045h.408l.091-.045.136-.045.181-.045h.318l.136.045.091.091.136.091.091.045h.091l.045-.091-.045-.181-.091-.091-.045-.045-.091-.045z" fill="red" stroke="#000" stroke-width=".112"/>
        <path id="Tracé_910" data-name="Tracé 910" class="cls-9" d="M442.837 52.652h-.181l-.181-.091-.272-.045h-.227l-.227.091-.181.136.091-.045h.363l.227.045.181.091.181.091.136.045.862-.091-.045-.726-.5-.5h-.315l-.091-.544-.227.045-.136-.136-.181-.091-.139-.044-.227.045-.181.091-.136.181-.091.136-.091.227.045.272.045.227.091-.136.091-.091.136-.045h.227l.227.045.227.091.181.136.181.136.136.136.045.181-.045.136" fill="red" stroke="#000" stroke-width=".112"/>
        <path id="Tracé_911" data-name="Tracé 911" class="cls-9" d="M445.151 50.022l-.5.68.136-.953-.454.817.091-1-.408.862.045-1-.318.862v-.953l-.318.862-.045-.953-.272.907v.045l-.136-.907-.181.907-.227-.907-.091.953-.272-.862.045.953h0v.5h0v.136c0 .045.363 0 .363 0l1.633.454c.091.091.408.091.408.136l.045-.227h0l.091-.363h0v-.045z" fill="red" stroke="#000" stroke-width=".112"/>
        <g id="Groupe_494" data-name="Groupe 494" transform="translate(435.442 67.078)">
            <path id="Tracé_912" data-name="Tracé 912" d="M16.376.907V.726a.725.725 0 0 1-.68-.726c0 .318-.363.59-.817.726h-.862C13.517.635 13.2.318 13.2 0h0c0 .363-.318.635-.817.726h-.817c-.5-.091-.817-.408-.817-.726h-.045c0 .363-.363.68-.862.771h-.726c-.5-.091-.862-.363-.907-.726 0 .363-.363.635-.862.726h-.726c-.5-.091-.862-.363-.907-.726a1.041 1.041 0 0 1-.817.726H4.08C3.626.68 3.263.408 3.263.045c-.045.363-.454.635-.953.726h-.544C1.222.68.813.408.813.045a.922.922 0 0 1-.817.726v1.588h16.33V.907z" fill="#072f66" stroke="#000" stroke-width=".236"/>
        </g>
        <path id="Tracé_913" data-name="Tracé 913" class="cls-9" d="M442.293 57.279l-.59-.544h0l-.136-.136.045.091-.363-.091.272-.635-1.361-.363-1.406-.544-.725-1.089-1 .045-.227 1-.091.318h-.272v.817l-.227.726v.59l-.045.454v.544l.091.363-.091.5.045.544-.045.5.045.544.045.454.181.318v.363l.091.544V63l.136.454.091.408.136-.091.045-.408v-1.321l.045-.817.227.091.136-.363v-.318l.136.091.136-.272.045-.272.136.136.181-.181.136-.454.091.091.227-.181.136-.363v-.045l.045.045.227-.045-.045.363.181.181.181-.045.136.227.227.091.045-.136.091.227.181.136.272-.045.318.091.136-.363v-.5l-.045-.544-.045-.136h.091l-.045.272.181.272.181-.091.181.272.227.091.045-.272.045-.635v-.363l.091.363.181.181.136-.363v-.635l-.045-.272.272 1.134.181.181.091-.408v-1.18z" fill="red" stroke="#000" stroke-width=".112"/>
        <path id="Tracé_914" data-name="Tracé 914" class="cls-9" d="M451.728 58.096l-.045-.454v-.59l-.227-.635a.409.409 0 0 0-.045-.227v-.635h-.136a6.328 6.328 0 0 0-.363-1.043c-.227-.318-1.452.272-1.86.318-.408.046-1.043.181-1.043.181a1.24 1.24 0 0 1-.726.817 3.356 3.356 0 0 1-1.361.136l-.227.907-.5.5-.045.59v.59l.136.408.181-.181.136-.635v.544l.136.408.181-.181.227-1.179v.907l.136.408.181-.181.091-.408v.364l.045.635.091.318.227-.091.136-.272.181.045.136-.272v-.272h.091l-.045.136-.045.5v.5l.136.363.318-.091.272.045.181-.136.091-.227.045.136.227-.091.136-.227.181.045.136-.227-.045-.317.181.045.045-.045v.045l.136.408.227.181.136-.091.136.454.181.181.091-.136.045.272.136.272.136-.091v.318l.136.408.227-.091.045.771v1.316l.045.408.136.136.091-.454.136-.408.045-.408.091-.5v-.408l.136-.318.091-.454.045-.5-.045-.5.045-.544-.091-.454.091-.408v-.635z" fill="red" stroke="#000" stroke-width=".112"/>
        <g id="Groupe_495" data-name="Groupe 495" transform="translate(434.535 67.939)">
            <path id="Tracé_915" data-name="Tracé 915" class="cls-11" d="M13.427.68a.8.8 0 0 1-.59-.68h0c0 .454-.544.771-1.225.771S10.387.408 10.387 0H10.3c0 .454-.544.771-1.225.771S7.85.408 7.85 0h0c0 .454-.544.771-1.225.771S5.4.408 5.4 0h0c0 .454-.544.771-1.225.771S2.95.408 2.95 0h0c0 .454-.544.771-1.225.771S.5.408.5 0h0a.71.71 0 0 1-.5.635" fill="none" stroke="#fff" stroke-width=".254"/>
            <path id="Tracé_916" data-name="Tracé 916" class="cls-11" d="M18.371.68a.8.8 0 0 1-.59-.68h0c0 .454-.544.771-1.225.771S15.331.408 15.331 0h0c0 .454-.544.771-1.225.771S12.881.408 12.881 0h0c0 .454-.544.817-1.225.817S10.431.454 10.431 0h0c0 .454-.544.817-1.225.817S7.981.454 7.981 0h0c0 .454-.544.771-1.225.771S5.531.408 5.531 0h0a.71.71 0 0 1-.5.635" fill="none" stroke="#fff" stroke-width=".254"/>
        </g>
        <path id="Tracé_917" data-name="Tracé 917" class="cls-9" d="M449.822 62.859l-.091-.136-.091-.091-.136-.136-.136-.045-.136-.045h-.227l.136-.091.181-.045h.045l.181-.045h.136l.091.091.091.091.045.136.045-.136v-.181l-.045-.136-.045-.136-.091-.136-.091-.091h0v-.045l-.136-.136h-.136l-.181.091-.136.045-.136.136-.181.136-.181.136-.181.136-.227.091-.136.045-.227-.091-.227-.091-.227-.091-.227-.136-.181-.091-.181-.136-.227-.181-.181-.181-.136-.136-.181-.181-.136-.181-.181-.227-.59-.136.408 1.043.181.181.181.136.227.181.318.181.272.136.227.045.272.045.181.045.272.136.091.045-.227.045h-.544l-.136.045-.136.091-.091.136-.045.181v.136h0l-.045.181v.318l.091.091.091.136.136.045h.272l.091-.045h-.227l-.091-.091-.045-.091v-.136l.045-.045h.045l.091-.045.091-.091.045-.091.045-.136.045-.136.136.045h.363l.136-.045.091-.045.136-.091.091.045.091.091.136.091.136.091.136.091.091.091.045.045-.045.091v.136l.045.136.136.045h.045v.091l.091.136.045.136-.045.136-.091.091-.091.091h-.181l.091.091h.136l.091-.045.091-.045.091-.091.091-.136.045-.181v-.318l-.045-.045h0v-.136l-.045-.136-.091-.091v-.14l-.045-.091-.091-.091-.091-.136-.136-.091h.59l.045.045-.091.045.045.136.091.136.091.045v.045l.045.136v.272l-.045.091h.045l.091-.091.091-.136.045-.136.045-.136v-.181l.045-.045.045-.136-.045-.136z" fill="red" stroke="#000" stroke-width=".112"/>
        <path id="Tracé_918" data-name="Tracé 918" class="cls-9" d="M442.066 60.682l-.181.227-.136.181-.181.181-.136.136-.181.181-.227.181-.181.136-.181.091-.227.136-.227.091-.227.091-.227.091-.136-.045-.227-.136-.181-.136-.181-.136-.181-.136-.136-.136-.136-.045-.181-.091h-.136l-.136.136v.045h0l-.091.091-.091.136-.045.136-.045.136v.181l.045.136.045-.136.091-.091.091-.091h.136l.181.045h.091l.136.045.136.091v.045h-.227l-.136.045-.136.045-.136.136-.091.091-.091.136-.045.091-.045.136.045.136.045.045v.181l.045.136.045.136.091.136.091.091h.045l-.045-.091v-.272l.045-.136v-.045l.136-.091.091-.136.045-.136-.091-.045.045-.045h.59l-.136.091-.091.136-.091.091-.045.091v.136l-.091.091-.045.136v.136h0l-.045.045v.318l.045.181.091.136.091.091.091.045.091.045h.136l.091-.045h-.181l-.091-.045-.091-.091-.045-.136.045-.136.091-.136v-.091h.045l.136-.091.045-.136v-.136l-.045-.091.045-.045.091-.091.136-.091.136-.091.136-.091.091-.045.091-.045.091.091.136.045.136.045h.363l.136-.045.045.136.045.136.045.091.091.091.091.045h.045l.045.045v.136l-.045.091-.091.091h-.181l.091.045h.272l.136-.045.091-.136.091-.091v-.318l-.045-.181h0v-.136l-.045-.181-.091-.136-.136-.091-.136-.045h-.544l-.227-.045.091-.045.272-.136.181-.045.272-.045.227-.091.272-.136.318-.181.227-.181.181-.136.181-.181.408-1.043z" fill="red" stroke="#000" stroke-width=".112"/>
        <path id="Tracé_919" data-name="Tracé 919" class="cls-9" d="M451.728 55.692l-.045-.408-.136-.363-.136-.272-.181-.318a2.878 2.878 0 0 0-.318-.544 1.555 1.555 0 0 0-.953-.408.65.65 0 0 0-.635.408c-.045.136-.091.771-.272.817a.667.667 0 0 1-.544-.181c-.181-.136-.363-.272-.59-.136-.227.136-.045 1.089-.454 1.27-.136.045-.318-.136-.454-.136s-.59.318-.817.272c-.227-.046-.5-.408-.59-.544-.136-.136-.272-.272-.318-.272l-.181-.181-.091-.181v-.048a1.852 1.852 0 0 1-.181-.726c0-.227.045-.817.045-1.089a5.88 5.88 0 0 0-.136-.817c0-.091-.045-.181-.045-.318h0l-.181-.227-.045-.045-.045-.045-.045-.043-.091-.091-.045-.045c-.227-.091-.5-.181-.68-.272h-.095l-.227-.045-.227-.045h-.408l-.136.045-.091.091-.045.136.136.136.091.136.091.181.136.227.136.318.091.227.091.136.091.227v.227l-.181.136h-.318l.181.227.136.136.091.091v.272l-.045.181-.091.136-.091.181v.136a3.982 3.982 0 0 1-.363.318 1.288 1.288 0 0 0-.272.454c-.091.091-.227.091-.272.181-.045.045-.136.272-.227.318-.091 0-.454-.136-.68-.181-.181-.091-.227-.045-.363.045-.136.09-.408-.227-.5-.363-.092-.136 0-.68-.136-.862-.136-.182-.363-.091-.5 0s-.454.318-.68.272c-.226-.046-.227-.862-.408-1a.734.734 0 0 0-.862-.181 1.247 1.247 0 0 0-.771.59l-.136.318-.181.318-.136.272-.136.363-.045.408-.045.454.045.5.091.363.136.091.091-.181.136-.318.136-.318.136-.363.091-.363.091.318.091.227.181.091.181-.091.136-.272.091-.272.045-.363.136.408.136.318.136.181.227.045v-.41l.227.272.181.136.227.227.181.181h.272l.136.272.136-.045.136.181h.181l.136-.136.136-.272.227.227.181-.045.136.227.363.181.318.318.454.091h0v.272l.045.272.045.136v.318l.045.091v.045l-.045.136v.363l-.091.136-.091.091-.136.136-.136.181-.091.227-.045.181v.227h-.227l-.227.091-.091.136v.181l.045-.136.136-.091.136-.045.227.045-.227.091-.091.181.091-.091.091-.045h.136l.136-.045-.181.136-.136.227-.091.272.045.136.045-.136.091-.181.091-.091.136-.045h.136l.181-.045-.091.136-.091.136-.091.091-.181.091.136.045.136-.045.136-.045.136-.136-.091.181-.045.181-.091.181-.136.136h.136l.136-.091.136-.181.136-.181-.091.181-.045.181-.091.181-.227.181-.181.091.091.045h.363l.181-.045.181-.091.091-.091.181-.136-.045.136-.091.136-.045.136.091-.136.091-.091.091-.227v.136l-.045.227-.045.136-.091.136-.136.136-.091.091-.136.091-.227.045-.227.045-.227.045-.318-.045-.181-.091-.181-.045.091.091.091.136.136.136.136.136.181.045.227.045.181-.045h.227l.181-.045.136-.091.136-.181v.227l-.045.181-.045.136-.091.136-.136.136-.181.136-.136.136-.181.045-.181.045-.227.091h-.227l-.272.045h-.454l-.227.045-.181.045-.181.091-.136.091-.091.136-.091.136v.318l.091.181.091.091.091.045.136.045.136-.045.091-.136-.091.091-.091.045h-.091l-.091-.045-.045-.136v-.268l.091-.136.136-.136.181-.045.227-.045.181.045h.227l-.136.091-.136.136-.045.227v.181l.091.136.136.091h.227l-.091-.045.272.045-.045-.136.045-.181.091-.136.136-.045h.227l.227-.091.181-.091.272-.045.181-.136.181-.136.181-.181.136-.181.181-.272v.5l-.091.181-.091.181-.136.136-.181.181-.136.136-.136.136-.136.091-.181.045h-.363l-.136-.045-.227-.181.136.181.136.136.181.091.136.045h.227l.227-.045.181-.091.181-.136.181-.091.181-.181.136-.136-.045.091v.635l-.091.181-.091.091-.136.045-.227-.045.136.091h.318l.181-.091v.354l.091.227.091.181.045-.136.045-.181.045-.227.045-.181v-.136l.091.136.136.091.136.045.227-.045-.136-.045-.091-.091-.091-.136-.045-.136-.045-.181v-.136l.045-.227.136.181.091.136.227.091.136.045.136.045.227.045.181-.045.181-.045.136-.136.136-.091.091-.181-.091.091-.136.045-.091.045-.136.045h-.136l-.181-.045-.181-.091-.181-.091-.136-.091-.136-.091-.091-.181-.091-.227-.091-.318-.091-.318-.045-.408-.045-.5.091.272.091.227.136.227.136.181.227.227.181.181.181.091.227.136.227.091.227.045.136.045.136.091.091.091.045.181v.181l-.136.136-.227.136.181-.045.136-.091.091-.136.091-.181v-.181l-.045-.181-.091-.181-.181-.136-.272-.091.181.045h.635l.227.091.227.091.181.091.136.136.136.181.045.272v.363l.091-.272v-.266l-.045-.227-.136-.181-.181-.181-.227-.136-.272-.091-.227-.091h-.862l-.272-.091-.227-.091-.227-.136-.181-.181-.136-.136-.091-.272-.091-.227-.181-.272.181.136.136.136.181.136.272.136h.59l.227-.091.181-.136.227-.227.136-.272-.091.181-.136.136-.181.091-.227.045-.227.045-.272-.045-.272-.045-.227-.091-.227-.181-.136-.227-.136-.227-.091-.272.091.227.136.181.181.181.181.045-.227-.136-.091-.181-.091-.181-.136-.408.136.227.136.227.136.091.181.091h.181l.136-.091.045-.045h-.272l-.181-.091-.091-.136-.091-.227v-.409l.045-.227v-.272l.045.272.136.181.181.181.227.227.091.272.091.136.091-.227-.045-.181-.136-.272.181.181.091.227.091.363v-.544l-.091-.227-.045-.227.091.091.136.181.091.136.091.136.091.227.045.181.045-.227v-.136l-.045-.227-.091-.181-.136-.272.181.091.091.091.091.181.091.272.091-.045-.045-.272-.045-.227-.091-.181-.045-.136.136.045.136.091.181.181-.136-.272-.227-.272-.136-.272-.136-.272-.091-.272-.227-.272-.181-.181-.136-.045.091-.272.045-.272v-.363l.091-.181.045-.272v-.272l.771-.136.318-.318.363-.181.136-.227.181.045.227-.227.136.272.136.136h.181l.136-.181.136.045.136-.272h.272l.181-.181.227-.227.181-.136.227-.272v.318l.181.181.227-.045.136-.181.136-.318.136-.408.045.363.091.272.136.272.181.091.181-.091.091-.227.091-.318.091.363.136.363.136.318.136.318.091.181.136-.091.091-.363.045-.5z" fill="red" stroke="#000" stroke-width=".112"/>
        <g id="Groupe_501" data-name="Groupe 501" transform="translate(442.824 51.337)">
            <g id="Groupe_500" data-name="Groupe 500">
                <g id="Groupe_499" data-name="Groupe 499">
                    <g id="Groupe_498" data-name="Groupe 498">
                        <g id="Groupe_497" data-name="Groupe 497">
                            <g id="Groupe_496" data-name="Groupe 496">
                                <path id="Tracé_920" data-name="Tracé 920" d="M244.676 85.181c.045 0 .091.045.091-.045 0-.045-.045-.136-.091-.136s-.091.045-.091.136c-.045.091.045.045.091.045z" transform="translate(-244.573 -85)"/>
                            </g>
                        </g>
                    </g>
                </g>
            </g>
        </g>
        <g id="Groupe_510" data-name="Groupe 510" transform="translate(435.624 21.761)">
            <path id="Tracé_921" data-name="Tracé 921" class="cls-12" d="M7.439 6.577a10.248 10.248 0 0 1 .091 1.5c-.045.272.091 1.089-.862.953a1.038 1.038 0 0 0 .181-.953 3.947 3.947 0 0 0-.454-1.406 1.618 1.618 0 0 0-.318-.318s.045.227.091.5a1.741 1.741 0 0 1-.045.862.775.775 0 0 1-.771.272.767.767 0 0 0 .318-.771 2.906 2.906 0 0 0-.726-1.5 4.641 4.641 0 0 1 1.633.272z" fill="red" stroke="#000" stroke-width=".094" stroke-linejoin="round"/>
            <g id="Groupe_503" data-name="Groupe 503" transform="translate(12.157 8.751)">
                <path id="Tracé_922" data-name="Tracé 922" class="cls-12" d="M0 3.587a4.911 4.911 0 0 1 .817-.318.672.672 0 0 1 .59.5c.136-.272.227-.817.454-1.043.272-.227.771-.136 1.089-.091A2.575 2.575 0 0 1 1.771 1.41 16 16 0 0 0 .909.049C.818-.178.864.457.864.457L.546 1.546l-.5 1.633z" fill="red" stroke="#000" stroke-width=".094" stroke-linejoin="round"/>
            </g>
            <g id="Groupe_504" data-name="Groupe 504" transform="translate(6.033 9.844)">
                <path id="Tracé_923" data-name="Tracé 923" class="cls-12" d="M2.994 0c-.363.68-.771 2.359-1.5 2.858-.729.499-.907.68-1.5.726.5.136 1.27.227 1.134.454l-.091.181a.943.943 0 0 1 .363 0 1.315 1.315 0 0 1 .136.5c0 .136-.091.408.136.181a11.088 11.088 0 0 0 1.406-2.722C3.13 1.86 2.994 0 2.994 0z" fill="red" stroke="#000" stroke-width=".094" stroke-linejoin="round"/>
            </g>
            <g id="Groupe_505" data-name="Groupe 505" transform="translate(7.666 12.611)">
                <path id="Tracé_924" data-name="Tracé 924" class="cls-12" d="M4.446 0a24.258 24.258 0 0 0-.544 3.765 6.819 6.819 0 0 0 .59 3.085c.136.272-.181.272-.318.045a9.764 9.764 0 0 0-.817-2c-.363-.318-.771-.363-.771 0 0 .408-.318.363-.363-.045-.045-.408-.091-.817-1.225-.68a2.711 2.711 0 0 0-1 .363z" fill="red" stroke="#000" stroke-width=".094" stroke-linejoin="round"/>
            </g>
            <g id="Groupe_506" data-name="Groupe 506" transform="translate(.758 1.059)">
                <path id="Tracé_925" data-name="Tracé 925" d="M4.006 14.999c1.27-.363 4.309-1.361 4.173-4.718C8.043 6.924 7 5.836 5.457 5.019a2.716 2.716 0 0 0-1.27-.272l-.181-.272a8.878 8.878 0 0 0-.953-.318 5.977 5.977 0 0 0-1.951-.091c-.272.045-.318-.181-.045-.272a7.953 7.953 0 0 1 2.54 0c0-.272-.544-.635-1.27-.726-.726-.136-1.814-.136-2.041-.454-.227-.318-.408-.5-.181-.59.181-.091 1 .408 1.315.272a4.454 4.454 0 0 0 .817-.363A.8.8 0 0 1 2.01.89c.181-.363.907-1.134 2.9-.817a13.189 13.189 0 0 1 5.9 3.538 5.752 5.752 0 0 1 1.678 5.081 8.946 8.946 0 0 1-3.039 5.625 44.139 44.139 0 0 0-3.175 3.085l-.272-1.769z" fill="#072f66" stroke="#000" stroke-width=".094" stroke-linejoin="round"/>
                <path id="Ligne_11" data-name="Ligne 11" class="cls-14" fill="none" stroke="#000" stroke-width=".094" stroke-linejoin="round" d="M2.191 1.799h.318"/>
            </g>
            <g id="Groupe_507" data-name="Groupe 507" transform="translate(4.491 2.994)">
                <path id="Tracé_926" data-name="Tracé 926" d="M238.6 26.536a.145.145 0 0 0 .136.136.12.12 0 0 0 .136-.136.145.145 0 0 0-.136-.136.12.12 0 0 0-.136.136z" transform="translate(-238.6 -26.4)"/>
            </g>
            <g id="Groupe_508" data-name="Groupe 508" transform="translate(0 13.103)">
                <path id="Tracé_927" data-name="Tracé 927" class="cls-12" d="M9.027 1.55c-1.86 1.179-4.128 2.177-6.487-.045C1.04.099 1.361.053.907.005A.9.9 0 0 0 0 .323c.363 0 .862-.136 1.27.454.408.59.544 1.179.318 1.361-.226.182-.045-.136-.272 0-.181.136-.045.363.272.635a.861.861 0 0 0 .5.227c.136.091.454.817.635.953a4.32 4.32 0 0 0 3.81-.227 5.977 5.977 0 0 1-3.72 1.452c1 .318 1.542.408 1.951.907.454.5.045.862.454.862.409 0 .091-.363.272-.363a1.324 1.324 0 0 1 .953.635c.181.408.408 1.316 1.27 1.5.862.184 1.089-.181 1.134-.363-.408 0-.454.454-1.089-.091a2.781 2.781 0 0 1-.318-3.629c1-1.724 1.814-2.359 1.86-2.949a1.589 1.589 0 0 1-.544.272z" fill="red" stroke="#000" stroke-width=".094" stroke-linejoin="round"/>
            </g>
            <path id="Tracé_928" data-name="Tracé 928" class="cls-12" d="M3.13 2.586c.318.136.363.136.454.181.091 0 1.043-.272 1.5-.318a1.663 1.663 0 0 1 1.361 1.27c.091-.726-.045-.862-.272-1.089a1.118 1.118 0 0 0-.771-.363c.136-.136.454-.091.59-.091a2.406 2.406 0 0 0-1.406 0 3.5 3.5 0 0 0-.907.454 7.947 7.947 0 0 1-.549-.044z" fill="red" stroke="#000" stroke-width=".094" stroke-linejoin="round"/>
            <g id="Groupe_509" data-name="Groupe 509" transform="translate(4.355)">
                <path id="Tracé_929" data-name="Tracé 929" class="cls-12" d="M0 .907C.363.862 2.041.998 2.767.09a.825.825 0 0 1-.5.726A4.877 4.877 0 0 0 3.673.771 1.958 1.958 0 0 0 4.989 0c-.045.5-.408.635-.635.817-.227.182-.272.363-.771.363.5.091 1.134.363 1.588.408a2.482 2.482 0 0 0 2.087-.544 1.208 1.208 0 0 1-.953 1 3.724 3.724 0 0 1-.907.181c.363.408.817.862 1.406 1.406.589.544 1.452 1.452 2.722.635-.181.544-.68.68-1.27.59a5.121 5.121 0 0 1-1.542-.454 1.4 1.4 0 0 1-.68-.862 3.112 3.112 0 0 0 .408 1.225 2.66 2.66 0 0 1-.817-.907c-.181.136-.318.318-.5.363.045-.227.227-.5 0-.817a5.123 5.123 0 0 0-.817-.862c.091.408.227.817.136.953a2.045 2.045 0 0 1-.454.635l.091-.544a2.213 2.213 0 0 1-.363.544 1.4 1.4 0 0 1-1.043.227c.59-.227 1-.454.953-1.089a1.977 1.977 0 0 0-.771-1.542 3.622 3.622 0 0 0-1.5-.771C.949.864.45.864.268.819A.278.278 0 0 1 0 .907z" fill="red" stroke="#000" stroke-width=".094" stroke-linejoin="round"/>
                <path id="Tracé_930" data-name="Tracé 930" class="cls-14" d="M3.629 1.27a3.5 3.5 0 0 1-.454-.045" fill="none" stroke="#000" stroke-width=".094" stroke-linejoin="round"/>
                <path id="Tracé_931" data-name="Tracé 931" class="cls-14" d="M2.223.817a1.543 1.543 0 0 1-.454.045" fill="none" stroke="#000" stroke-width=".094" stroke-linejoin="round"/>
            </g>
        </g>
    </g>
</svg>
