<svg xmlns="http://www.w3.org/2000/svg" width="67" height="65" viewBox="0 0 67 65">
  <g fill="none" fill-rule="evenodd">
    <rect width="67" height="65" fill="#FFF"/>
    <g stroke="#1F4B99" stroke-width="2" transform="translate(11 20)">
      <rect width="48" height="38" x="1" y="1" fill="#FFF" rx="2"/>
      <g transform="translate(10 6.692)">
        <path stroke-linecap="round" stroke-linejoin="round" d="M0,0.307692308 L6.35294118,4.47435897 C6.35294118,14.474359 6.35294118,20.3076923 6.35294118,21.974359 C6.35294118,24.474359 7.38852199,25.3076923 9.50202891,25.3076923 C10.9110335,25.3076923 16.7436905,25.3076923 27,25.3076923"/>
        <path d="M6.40722656,8.30769231 L30,10.7076923 C30,11.2627924 30,12.5003425 30,14.4203425 C30,17.4276923 28.5834238,20.3076923 21.4935871,20.3076923 C16.7670293,20.3076923 11.7382425,20.021978 6.40722656,19.4505495 L6.40722656,8.30769231 Z"/>
        <circle cx="27.5" cy="26.808" r="1.5" fill="#FFF"/>
        <circle cx="12.5" cy="26.808" r="1.5" fill="#FFF"/>
      </g>
    </g>
    <rect width="4" height="59" x="33.5" y="-22.5" stroke="#1F4B99" stroke-width="2" rx="1" transform="rotate(90 35.5 7)"/>
    <path stroke="#1F4B99" stroke-linecap="round" stroke-linejoin="round" stroke-width="2" d="M.5 0L.5 13.7154312M37.5 0L37.5 13.7154312" transform="translate(17 10)"/>
    <polyline stroke="#1F4B99" stroke-linecap="round" stroke-linejoin="round" stroke-width="2" points="6 64.343 6 1 2 1 2 64.343"/>
  </g>
</svg>
