<svg xmlns="http://www.w3.org/2000/svg" width="66" height="67" viewBox="0 0 66 67">
  <g fill="none" fill-rule="evenodd">
    <rect width="66" height="67" fill="#FFF"/>
    <g fill="#FFF" stroke="#1F4B99" stroke-width="2" transform="translate(0 -4)">
      <rect width="20.629" height="10.257" x="12.314" y="27.288" rx="1"/>
      <rect width="20.629" height="10.257" x="2.886" y="37.659" rx="1"/>
      <rect width="20.629" height="10.257" x="1" y="58.402" rx="1"/>
      <rect width="20.629" height="10.257" x="44.371" y="37.659" rx="1"/>
      <rect width="20.629" height="10.257" x="42.486" y="58.402" rx="1"/>
      <rect width="20.629" height="10.257" x="12.314" y="48.031" rx="1"/>
      <rect width="20.629" height="10.257" x="33.057" y="27.288" rx="1"/>
      <rect width="20.629" height="10.257" x="23.629" y="37.659" rx="1"/>
      <rect width="20.629" height="10.257" x="21.743" y="58.402" rx="1"/>
      <rect width="20.629" height="10.257" x="33.057" y="48.031" rx="1"/>
      <g transform="rotate(60 25.084 43.469)">
        <path d="M1.58094182,23.3703063 C1.2267914,23.5337604 1,23.8882148 1,24.2782657 L1,35.8153698 C1,36.1141843 1.13362882,36.3973415 1.36429275,36.5873 L9.11139699,42.9672682 C9.4806528,43.2713613 10.0135557,43.2713613 10.3828115,42.9672682 L18.1299157,36.5873 C18.3605797,36.3973415 18.4942085,36.1141843 18.4942085,35.8153698 L18.4942085,24.2782657 C18.4942085,23.8882148 18.2674171,23.5337604 17.9132667,23.3703063 L12.020325,20.6504871 C11.8889433,20.5898494 11.7459669,20.5584465 11.6012669,20.5584465 L7.89294164,20.5584465 C7.74824162,20.5584465 7.60526521,20.5898494 7.47388346,20.6504871 L1.58094182,23.3703063 Z"/>
        <rect width="3.734" height="10.614" x="7.88" y="12.531" rx="1"/>
        <path d="M5.58687259,3.51538086 C5.58687257,7.60628635 5.58687257,7.61299428 5.5868725,15.1183279 C5.5868725,15.1183345 5.58687782,15.1183398 5.58688295,15.1183398 L13.9073359,15.1183279 C13.9073359,11.2470161 13.9073359,11.2470161 13.9073359,7.37570427 C13.9073359,5.44559312 13.9073359,5.44006424 13.9073359,3.52097917 C13.9064294,3.50573733 13.9053051,3.49180685 13.9030117,3.47052194 C13.894969,3.39587582 13.8798613,3.30794532 13.8557912,3.21033393 C13.7843422,2.92058793 13.6555077,2.62848002 13.4556822,2.35577823 C12.8459343,1.52365539 11.6984164,1 9.74710425,1 C7.79292591,1 6.64479804,1.51980749 6.03718424,2.3450872 C5.83789696,2.61576531 5.70960696,2.90617766 5.63868186,3.19517566 C5.61457975,3.29338432 5.59946845,3.3823244 5.59146534,3.45841491 C5.58903236,3.4815468 5.5879162,3.49620142 5.58692999,3.51406089 C5.58690878,3.51454858 5.58688971,3.5149872 5.58687259,3.51538086 Z M13.9075286,3.52367204 C13.9075364,3.52398763 13.9075457,3.52434756 13.9075579,3.52482226 C13.9075893,3.52572399 13.9076049,3.52617486 13.9075905,3.52592073 Z"/>
      </g>
    </g>
  </g>
</svg>
