<svg xmlns="http://www.w3.org/2000/svg" width="29" height="32" viewBox="0 0 29 32">
  <path fill="#4580E6" d="M8.61538462,14.7692308 C5.21673846,14.7692308 2.46153846,12.0140308 2.46153846,8.61538462 L2.46153846,8.61538462 L2.46153846,3.69230769 C2.46153846,3.01267692 3.01267692,2.46153846 3.69230769,2.46153846 L4.92307692,2.46153846 C5.60270769,2.46153846 6.15384615,1.9104 6.15384615,1.23076923 C6.15384615,0.551138462 5.60270769,0 4.92307692,0 L3.69230769,0 C1.65316923,0 0,1.65316923 0,3.69230769 L0,8.61538462 C0.0032,11.4377846 1.39273846,14.0787692 3.71692308,15.68 L3.71692308,15.68 C5.93993846,17.6398769 7.26498462,20.4233846 7.38461538,23.3846154 C7.38461538,28.1427692 11.2418462,32 16,32 C20.7581538,32 24.6153846,28.1427692 24.6153846,23.3846154 L24.6153846,21.9815385 C27.248,21.3019077 28.8310154,18.6166154 28.1513846,15.984 C27.4715077,13.3513846 24.7864615,11.7683692 22.1538462,12.448 C19.5212308,13.1278769 17.9382154,15.8129231 18.6178462,18.4455385 C19.0656,20.1796923 20.4196923,21.5337846 22.1538462,21.9815385 L22.1538462,23.3846154 C22.1538462,26.7832615 19.3986462,29.5384615 16,29.5384615 C12.6013538,29.5384615 9.84615385,26.7832615 9.84615385,23.3846154 C9.97193846,20.4196923 11.3063385,17.6354462 13.5384615,15.68 L13.5384615,15.68 C15.8532923,14.0731077 17.2332308,11.4333538 17.2307692,8.61538462 L17.2307692,3.69230769 C17.2307692,1.65316923 15.5776,0 13.5384615,0 L12.3076923,0 C11.6280615,0 11.0769231,0.551138462 11.0769231,1.23076923 C11.0769231,1.9104 11.6280615,2.46153846 12.3076923,2.46153846 L13.5384615,2.46153846 C14.2180923,2.46153846 14.7692308,3.01267692 14.7692308,3.69230769 L14.7692308,8.61538462 L14.7692308,8.61538462 C14.7692308,12.0140308 12.0140308,14.7692308 8.61538462,14.7692308 L8.61538462,14.7692308 Z M23.3846154,19.6923077 C22.0251077,19.6923077 20.9230769,18.5902769 20.9230769,17.2307692 C20.9230769,15.8712615 22.0251077,14.7692308 23.3846154,14.7692308 C24.7441231,14.7692308 25.8461538,15.8712615 25.8461538,17.2307692 C25.8461538,18.5902769 24.7441231,19.6923077 23.3846154,19.6923077 Z" opacity=".146"/>
</svg>
