<svg xmlns="http://www.w3.org/2000/svg" width="12" height="32" viewBox="0 0 12 32">
  <path fill="#4580E6" d="M9.16666667,6.50252848 C10.5781139,7.49815095 11.5,9.14141646 11.5,11 L11.5,26.3333333 C11.5,29.3708995 9.03756612,31.8333333 6,31.8333333 C2.96243388,31.8333333 0.5,29.3708995 0.5,26.3333333 L0.5,11 C0.5,9.14141646 1.42188611,7.49815095 2.83333333,6.50252848 L2.83333333,1.01225142 C2.83333333,0.736109046 3.05719096,0.51225142 3.33333333,0.51225142 C3.6094757,0.51225142 3.83333333,0.736109046 3.83333333,1.01225142 L3.83333333,5.94321577 C4.352558,5.72045296 4.91298116,5.57532061 5.5,5.52242151 L5.5,0.994477605 C5.5,0.728151437 5.72385763,0.512251421 6,0.512251421 C6.27614237,0.512251421 6.5,0.728151437 6.5,0.994477605 L6.5,5.52242151 C7.08701884,5.57532061 7.647442,5.72045296 8.16666667,5.94321577 L8.16666667,1.01225142 C8.16666667,0.736109046 8.3905243,0.51225142 8.66666667,0.51225142 C8.94280904,0.51225142 9.16666667,0.736109046 9.16666667,1.01225142 L9.16666667,6.50252848 Z M8.16666667,7.34231471 C7.66939299,7.08692778 7.10396667,6.91686322 6.5,6.85548891 L6.5,12.0300252 C6.5,12.2963514 6.27614237,12.5122514 6,12.5122514 C5.72385763,12.5122514 5.5,12.2963514 5.5,12.0300252 L5.5,6.85448301 C4.89632211,6.91458628 4.33093069,7.08325208 3.83333333,7.33719515 L3.83333333,10.3333333 C3.83333333,10.6094757 3.6094757,10.8333333 3.33333333,10.8333333 C3.05719096,10.8333333 2.83333333,10.6094757 2.83333333,10.3333333 L2.83333333,8.0497231 C2.20875879,8.66020593 1.83,9.45526792 1.83,10.33 C1.83,12.2774448 3.7073398,13.83 5.99499999,13.83 C8.28266017,13.83 10.16,12.2774448 10.16,10.33 C10.16,9.4599462 9.78528176,8.66871258 9.16666667,8.05953395 L9.16666667,10.3333333 C9.16666667,10.6094757 8.94280904,10.8333333 8.66666667,10.8333333 C8.3905243,10.8333333 8.16666667,10.6094757 8.16666667,10.3333333 L8.16666667,7.34231471 Z" opacity=".146"/>
</svg>
