<svg xmlns="http://www.w3.org/2000/svg" width="32" height="23" viewBox="0 0 32 23">
  <path fill="#4580E6" d="M1.06666667,-1.81188398e-13 C0.426666667,-1.81188398e-13 0,0.426666667 0,1.06666667 L0,17.0666667 L0,21.3333333 C0,21.9733333 0.426666667,22.4 1.06666667,22.4 C1.70666667,22.4 2.13333333,21.9733333 2.13333333,21.3333333 L2.13333333,18.1333333 L29.8666667,18.1333333 L29.8666667,21.3333333 C29.8666667,21.9733333 30.2933333,22.4 30.9333333,22.4 C31.5733333,22.4 32,21.9733333 32,21.3333333 L32,17.0666667 C32,16.4266667 31.5733333,16 30.9333333,16 L2.13333333,16 L2.13333333,1.06666667 C2.13333333,0.426666667 1.70666667,-1.81188398e-13 1.06666667,-1.81188398e-13 Z M7.46666667,1.06666667 C5.76,1.06666667 4.26666667,2.56 4.26666667,4.26666667 L4.26666667,4.26666667 C4.26666667,5.97333333 5.76,7.46666667 7.46666667,7.46666667 L7.46666667,7.46666667 C9.17333333,7.46666667 10.6666667,5.97333333 10.6666667,4.26666667 L10.6666667,4.26666667 C10.6666667,2.56 9.17333333,1.06666667 7.46666667,1.06666667 L7.46666667,1.06666667 Z M14.9333333,3.2 C11.7333333,3.2 11.7333333,6.4 11.7333333,6.4 L11.7333333,9.6 L5.33333333,9.6 C4.69333333,9.6 4.26666667,10.0266667 4.26666667,10.6666667 L4.26666667,12.8 C4.26666667,13.44 4.69333333,13.8666667 5.33333333,13.8666667 L12.8,13.8666667 L32,13.8666667 L32,8.53333333 C32,3.2 26.6666667,3.2 26.6666667,3.2 L14.9333333,3.2 Z" opacity=".146"/>
</svg>
