<?xml version="1.0" encoding="UTF-8" standalone="no"?>
<svg width="145px" height="143px" viewBox="0 0 145 143" version="1.1" xmlns="http://www.w3.org/2000/svg" xmlns:xlink="http://www.w3.org/1999/xlink">
    <title>CreÌa Auran V2</title>
    <defs></defs>
    <g id="sprite" stroke="none" stroke-width="1" fill="none" fill-rule="evenodd">
        <g id="Logo">
            <path d="M0.122435159,77 L144.994568,77" id="Stroke-1" stroke="#00A7FF"/>
            <path d="M27.4116859,120.940029 L29.9059366,120.940029 L37.904755,141.893573 L35.7088617,141.893573 L33.2576513,135.318429 L24.0035591,135.318429 L21.5243516,141.893573 L19.3852882,141.893573 L27.4116859,120.940029 L27.4116859,120.940029 Z M28.6092939,122.911945 L24.7030692,133.433012 L32.5585591,133.433012 L28.6092939,122.911945 L28.6092939,122.911945 Z" id="Fill-2" fill="#627984"/>
            <path d="M44.6842363,120.940029 L46.7217579,120.940029 L46.7217579,133.547507 C46.7217579,134.899308 46.7802594,135.884222 46.8926657,136.496816 C47.0167723,137.102305 47.2123343,137.62464 47.4772622,138.066326 C47.9059942,138.747032 48.4475504,139.269784 49.1036023,139.634164 C49.7688473,139.998963 50.5059654,140.181153 51.314121,140.181153 C52.1318876,140.181153 52.8723487,139.998963 53.5380115,139.634164 C54.2124496,139.260173 54.7540058,138.737421 55.1639337,138.066326 C55.4380548,137.615447 55.6336167,137.087262 55.7485303,136.481772 C55.8613545,135.878372 55.919438,134.899308 55.919438,133.547507 L55.919438,120.940029 L57.9440058,120.940029 L57.9440058,134.265821 C57.9440058,136.98196 57.4062104,139.006527 56.3331268,140.339107 C55.267147,141.673775 53.6412248,142.339438 51.4549424,142.339438 C49.1374496,142.339438 47.424611,141.688818 46.3231124,140.382565 C45.2291354,139.077983 44.6842363,137.040043 44.6842363,134.265821 L44.6842363,120.940029" id="Fill-3" fill="#627984"/>
            <path d="M65.3778674,120.940029 L70.9513833,120.940029 C73.4138761,120.940029 75.3143372,121.505821 76.6548559,122.637406 C77.9949568,123.771081 78.6660519,125.372349 78.6660519,127.445807 C78.6660519,129.143184 78.1905187,130.583156 77.2394524,131.76196 C76.2879683,132.932824 75.0774063,133.581354 73.6040058,133.705461 L78.6944669,141.893573 L76.2127522,141.893573 L70.0830548,131.792046 L72.0361671,131.792046 C73.3482709,131.792046 74.4121614,131.402594 75.229928,130.626196 C76.0568876,129.848127 76.4705764,128.850259 76.4705764,127.632176 C76.4705764,125.990793 76.0079971,124.812406 75.0870173,124.092421 C74.1639481,123.362824 72.6002882,122.998444 70.3968732,122.998444 L67.4158069,122.998444 L67.4158069,141.893573 L65.3778674,141.893573 L65.3778674,120.940029" id="Fill-4" fill="#627984"/>
            <path d="M92.2592795,120.940029 L94.7535303,120.940029 L102.751931,141.893573 L100.556455,141.893573 L98.1035735,135.318429 L88.8511527,135.318429 L86.3715274,141.893573 L84.232464,141.893573 L92.2592795,120.940029 L92.2592795,120.940029 Z M93.4564697,122.911945 L89.5506628,133.433012 L97.4057349,133.433012 L93.4564697,122.911945 L93.4564697,122.911945 Z" id="Fill-5" fill="#627984"/>
            <path d="M109.559827,120.940029 L112.011037,120.940029 L123.218242,139.389712 L123.218242,120.940029 L125.184308,120.940029 L125.184308,141.893573 L122.718473,141.893573 L111.512939,123.415476 L111.512939,141.893573 L109.559827,141.893573 L109.559827,120.940029" id="Fill-6" fill="#627984"/>
            <path d="M17.0339481,73.8250576 L17.0339481,0.138314121 L127.250245,0.138314121 L127.250245,73.8250576 L117.251931,73.7820173 L117.251931,10.1420605 L27.3218444,10.1420605 L27.3218444,73.6992795 L17.0339481,73.8250576" id="Fill-7" fill="#627984"/>
            <path d="M17.0339481,83.1568732 L27.4889914,83.1568732 L27.4889914,101.063329 L117.251931,101.063329 L117.251931,83.113415 L127.207205,83.113415 L127.207205,111.108862 L17.075317,111.108862 L17.0339481,83.1568732" id="Fill-8" fill="#627984"/>
        </g>
    </g>
</svg>