<?xml version="1.0" encoding="UTF-8"?>
<svg width="16px" height="16px" viewBox="0 0 16 16" version="1.1" xmlns="http://www.w3.org/2000/svg" xmlns:xlink="http://www.w3.org/1999/xlink">
    <!-- Generator: Sketch 52.6 (67491) - http://www.bohemiancoding.com/sketch -->
    <title>Shape</title>
    <desc>Created with Sketch.</desc>
    <g id="Page-1" stroke="none" stroke-width="1" fill="none" fill-rule="evenodd">
        <g id="map-create" fill="#F5F8FA" fill-rule="nonzero">
            <path d="M14,6.82 L14,13.14 L11.06,11.18 C11.06,11.18 11.06,11.18 11.06,11.18 C11.04,11.17 11.02,11.16 11.01,11.15 L11.01,6.22 C10.93,6.15 10.86,6.06 10.79,5.98 C10.51,5.96 10.25,5.9 10,5.82 L10,11.14 C10,11.14 9.99,11.14 9.99,11.15 L6,13.53 L6,4.86 C6,4.86 6.01,4.86 6.01,4.85 L8.06,3.62 C8.02,3.42 8,3.21 8,3 C8,2.02 8.47,1.16 9.2,0.61 L5.53,2.81 L1.56,0.17 C1.56,0.17 1.56,0.17 1.56,0.17 C1.4,0.06 1.21,0 1,0 C0.45,0 0,0.45 0,1 L0,12 C0,12.35 0.18,12.65 0.45,12.83 L4.94,15.83 C4.94,15.83 4.94,15.83 4.94,15.83 C5.1,15.94 5.29,16 5.5,16 C5.69,16 5.86,15.94 6.01,15.85 L10.47,13.18 L14.44,15.83 C14.44,15.83 14.44,15.83 14.44,15.83 C14.6,15.94 14.79,16 15,16 C15.55,16 16,15.55 16,15 L16,5.82 C15.75,5.91 15.48,5.96 15.2,5.98 C14.87,6.34 14.47,6.65 14,6.82 Z M5,13.46 L2,11.46 L2,2.86 L4.94,4.82 C4.94,4.82 4.94,4.82 4.94,4.82 C4.96,4.84 4.98,4.85 5,4.86 L5,13.46 Z M11,4 L12,4 L12,5 C12,5.55 12.45,6 13,6 C13.55,6 14,5.55 14,5 L14,4 L15,4 C15.55,4 16,3.55 16,3 C16,2.45 15.55,2 15,2 L14,2 L14,1 C14,0.45 13.55,0 13,0 C12.45,0 12,0.45 12,1 L12,2 L11,2 C10.45,2 10,2.45 10,3 C10,3.55 10.45,4 11,4 Z" id="Shape"></path>
        </g>
    </g>
</svg>