<svg xmlns="http://www.w3.org/2000/svg" width="67" height="67" viewBox="0 0 67 67">
  <g fill="none" fill-rule="evenodd">
    <rect width="67" height="67" fill="#FFF"/>
    <g stroke="#1F4B99" transform="translate(1.866 1.866)">
      <circle cx="44.255" cy="12.011" r="5.7" stroke-width="2.5" transform="rotate(45 44.255 12.011)"/>
      <path stroke-linecap="square" stroke-width="2.5" d="M38.2094719,20.9071052 L38.2094719,15.2071633" transform="rotate(45 38.21 18.057)"/>
      <circle cx="44.255" cy="44.255" r="5.7" stroke-width="2.5" transform="rotate(135 44.255 44.255)"/>
      <path stroke-linecap="square" stroke-width="2.5" d="M38.2094719,41.0594429 L38.2094719,35.359501" transform="rotate(135 38.21 38.21)"/>
      <circle cx="12.378" cy="12.378" r="5.7" stroke-width="2.5" transform="scale(-1 1) rotate(45 0 -17.505)"/>
      <path stroke-linecap="square" stroke-width="2.5" d="M18.6221223,21.191256 L18.6221223,16.0529885" transform="scale(-1 1) rotate(45 0 -26.336)"/>
      <circle cx="12.378" cy="43.889" r="5.7" stroke-width="2.5" transform="scale(1 -1) rotate(-45 -93.579 0)"/>
      <path stroke-linecap="square" stroke-width="2.5" d="M18.6221223,40.2136177 L18.6221223,35.0753502" transform="scale(1 -1) rotate(-45 -72.26 0)"/>
      <circle cx="27.769" cy="5.846" r="5.846" stroke-width="2.5"/>
      <path stroke-linecap="square" stroke-width="2.5" d="M28.1343284,17.5382826 L28.1343284,12.0575693"/>
      <circle cx="50.423" cy="28.5" r="5.846" stroke-width="2.5" transform="rotate(90 50.423 28.5)"/>
      <path stroke-linecap="square" stroke-width="2.5" d="M42.0188021,31.4227563 L42.0188021,26.3074239" transform="rotate(90 42.019 28.865)"/>
      <circle cx="5.846" cy="28.5" r="5.846" stroke-width="2.5" transform="matrix(0 1 1 0 -22.654 22.654)"/>
      <path stroke-linecap="square" stroke-width="2.5" d="M14.6152355,31.7881372 L14.6152355,25.942043" transform="matrix(0 1 1 0 -14.25 14.25)"/>
      <circle cx="27.769" cy="50.423" r="5.846" stroke-width="2.5" transform="matrix(1 0 0 -1 0 100.845)"/>
      <path stroke-linecap="square" stroke-width="2.5" d="M28.1343284,44.5764683 L28.1343284,40.1488371" transform="matrix(1 0 0 -1 0 84.038)"/>
      <circle cx="28.5" cy="28.5" r="10.961" stroke-width="2.5"/>
    </g>
    <polygon fill="#FFF" points="29 29 67 12.985 67 67 12.894 67"/>
    <g stroke="#1F4B99" stroke-width="1.25" transform="translate(26 28)">
      <g transform="translate(0 10)">
        <rect width="22.75" height="15.75" x="2.625" y="1.327" rx="1"/>
        <rect width="39.031" height="5.79" x="1.164" y="19.297" rx="1"/>
        <path d="M39.3223684,13.7073173 L31.7731468,4.625 L28,4.625 C27.7928932,4.625 27.625,4.79289322 27.625,5 L27.625,19 C27.625,19.2071068 27.7928932,19.375 28,19.375 L38.9473684,19.375 C39.1544752,19.375 39.3223684,19.2071068 39.3223684,19 L39.3223684,13.7073173 Z"/>
        <circle cx="9.365" cy="25.707" r="2.891" fill="#FFF"/>
        <circle cx="34.54" cy="25.707" r="2.891" fill="#FFF"/>
        <circle cx="9.365" cy="25.707" r="1" fill="#1F4B99"/>
        <circle cx="34.54" cy="25.707" r="1" fill="#1F4B99"/>
      </g>
      <polygon fill="#FFF" stroke-linecap="round" stroke-linejoin="round" points="13.5 0 19 9 16 9 16 16 11 16 11 9 8 9" transform="matrix(1 0 0 -1 0 16)"/>
    </g>
  </g>
</svg>
