<svg xmlns="http://www.w3.org/2000/svg" width="67" height="67" viewBox="0 0 67 67">
  <g fill="none" fill-rule="evenodd">
    <rect width="67" height="67" fill="#FFF"/>
    <g stroke="#1F4B99" transform="translate(1.866 1.866)">
      <circle cx="44.255" cy="12.011" r="5.7" stroke-width="2.5" transform="rotate(45 44.255 12.011)"/>
      <path stroke-linecap="square" stroke-width="2.5" d="M38.2094719,20.9071052 L38.2094719,15.2071633" transform="rotate(45 38.21 18.057)"/>
      <circle cx="44.255" cy="44.255" r="5.7" stroke-width="2.5" transform="rotate(135 44.255 44.255)"/>
      <path stroke-linecap="square" stroke-width="2.5" d="M38.2094719,41.0594429 L38.2094719,35.359501" transform="rotate(135 38.21 38.21)"/>
      <circle cx="12.378" cy="12.378" r="5.7" stroke-width="2.5" transform="scale(-1 1) rotate(45 0 -17.505)"/>
      <path stroke-linecap="square" stroke-width="2.5" d="M18.6221223,21.191256 L18.6221223,16.0529885" transform="scale(-1 1) rotate(45 0 -26.336)"/>
      <circle cx="12.378" cy="43.889" r="5.7" stroke-width="2.5" transform="scale(1 -1) rotate(-45 -93.579 0)"/>
      <path stroke-linecap="square" stroke-width="2.5" d="M18.6221223,40.2136177 L18.6221223,35.0753502" transform="scale(1 -1) rotate(-45 -72.26 0)"/>
      <circle cx="27.769" cy="5.846" r="5.846" stroke-width="2.5"/>
      <path stroke-linecap="square" stroke-width="2.5" d="M28.1343284,17.5382826 L28.1343284,12.0575693"/>
      <circle cx="50.423" cy="28.5" r="5.846" stroke-width="2.5" transform="rotate(90 50.423 28.5)"/>
      <path stroke-linecap="square" stroke-width="2.5" d="M42.0188021,31.4227563 L42.0188021,26.3074239" transform="rotate(90 42.019 28.865)"/>
      <circle cx="5.846" cy="28.5" r="5.846" stroke-width="2.5" transform="matrix(0 1 1 0 -22.654 22.654)"/>
      <path stroke-linecap="square" stroke-width="2.5" d="M14.6152355,31.7881372 L14.6152355,25.942043" transform="matrix(0 1 1 0 -14.25 14.25)"/>
      <circle cx="27.769" cy="50.423" r="5.846" stroke-width="2.5" transform="matrix(1 0 0 -1 0 100.845)"/>
      <path stroke-linecap="square" stroke-width="2.5" d="M28.1343284,44.5764683 L28.1343284,40.1488371" transform="matrix(1 0 0 -1 0 84.038)"/>
      <circle cx="28.5" cy="28.5" r="10.961" stroke-width="2.5"/>
    </g>
    <polygon fill="#FFF" points="29 29 67 12.985 67 67 12.894 67"/>
    <g fill="#FFF" stroke="#1F4B99" stroke-width="1.25" transform="translate(26 24)">
      <rect width="12.807" height="6.364" x="7.654" y="16.471" rx="1"/>
      <rect width="12.807" height="6.364" x="1.796" y="22.913" rx="1"/>
      <rect width="12.807" height="6.364" x=".625" y="35.799" rx="1"/>
      <rect width="12.807" height="6.364" x="27.568" y="22.913" rx="1"/>
      <rect width="12.807" height="6.364" x="26.396" y="35.799" rx="1"/>
      <rect width="12.807" height="6.364" x="7.654" y="29.356" rx="1"/>
      <rect width="12.807" height="6.364" x="20.539" y="16.471" rx="1"/>
      <rect width="12.807" height="6.364" x="14.682" y="22.913" rx="1"/>
      <rect width="12.807" height="6.364" x="13.511" y="35.799" rx="1"/>
      <rect width="12.807" height="6.364" x="20.539" y="29.356" rx="1"/>
      <g transform="rotate(60 14.17 25.598)">
        <path d="M1.42379501,13.3115573 C0.936838177,13.5363066 0.625,14.0236814 0.625,14.5600014 L0.625,20.2824336 C0.625,20.6933035 0.808739622,21.0826447 1.12590253,21.3438376 L4.7542808,24.3319139 C5.26200754,24.7500418 5.99474901,24.7500418 6.50247575,24.3319139 L10.130854,21.3438376 C10.4480169,21.0826447 10.6317565,20.6933035 10.6317565,20.2824336 L10.6317565,14.5600014 C10.6317565,14.0236814 10.3199184,13.5363066 9.83296154,13.3115573 L7.08963388,12.0454061 C6.90898398,11.9620292 6.71239141,11.9188502 6.51342889,11.9188502 L4.74332766,11.9188502 C4.54436513,11.9188502 4.34777256,11.9620292 4.16712267,12.0454061 L1.42379501,13.3115573 Z"/>
        <rect width="2.061" height="6.034" x="4.598" y="7.284" rx="1"/>
        <path d="M7.98310795,2.03450747 C7.98314703,2.035173 7.98318834,2.03589071 7.98323426,2.03668822 L7.9832462,2.03668759 L7.98326402,2.03768653 C9.23310762,2.02437989 9.23310762,2.02437989 9.23310795,2.02358011 L7.98310795,2.02358011 L7.98310795,2.03450747 Z M3.2736486,2.03105672 L3.2736486,2.02358011 C3.27362106,2.02985686 3.27362106,2.02985686 3.27356334,2.03261475 L3.27362456,2.03149462 C3.2736327,2.03134626 3.27364071,2.03120034 3.2736486,2.03105672 Z"/>
      </g>
    </g>
  </g>
</svg>
