<svg xmlns="http://www.w3.org/2000/svg" width="67" height="67" viewBox="0 0 67 67">
  <g fill="none" fill-rule="evenodd">
    <rect width="67" height="67" fill="#FFF"/>
    <g stroke="#1F4B99" transform="translate(1.866 1.866)">
      <circle cx="44.255" cy="12.011" r="5.7" stroke-width="2.5" transform="rotate(45 44.255 12.011)"/>
      <path stroke-linecap="square" stroke-width="2.5" d="M38.2094719,20.9071052 L38.2094719,15.2071633" transform="rotate(45 38.21 18.057)"/>
      <circle cx="44.255" cy="44.255" r="5.7" stroke-width="2.5" transform="rotate(135 44.255 44.255)"/>
      <path stroke-linecap="square" stroke-width="2.5" d="M38.2094719,41.0594429 L38.2094719,35.359501" transform="rotate(135 38.21 38.21)"/>
      <circle cx="12.378" cy="12.378" r="5.7" stroke-width="2.5" transform="scale(-1 1) rotate(45 0 -17.505)"/>
      <path stroke-linecap="square" stroke-width="2.5" d="M18.6221223,21.191256 L18.6221223,16.0529885" transform="scale(-1 1) rotate(45 0 -26.336)"/>
      <circle cx="12.378" cy="43.889" r="5.7" stroke-width="2.5" transform="scale(1 -1) rotate(-45 -93.579 0)"/>
      <path stroke-linecap="square" stroke-width="2.5" d="M18.6221223,40.2136177 L18.6221223,35.0753502" transform="scale(1 -1) rotate(-45 -72.26 0)"/>
      <circle cx="27.769" cy="5.846" r="5.846" stroke-width="2.5"/>
      <path stroke-linecap="square" stroke-width="2.5" d="M28.1343284,17.5382826 L28.1343284,12.0575693"/>
      <circle cx="50.423" cy="28.5" r="5.846" stroke-width="2.5" transform="rotate(90 50.423 28.5)"/>
      <path stroke-linecap="square" stroke-width="2.5" d="M42.0188021,31.4227563 L42.0188021,26.3074239" transform="rotate(90 42.019 28.865)"/>
      <circle cx="5.846" cy="28.5" r="5.846" stroke-width="2.5" transform="matrix(0 1 1 0 -22.654 22.654)"/>
      <path stroke-linecap="square" stroke-width="2.5" d="M14.6152355,31.7881372 L14.6152355,25.942043" transform="matrix(0 1 1 0 -14.25 14.25)"/>
      <circle cx="27.769" cy="50.423" r="5.846" stroke-width="2.5" transform="matrix(1 0 0 -1 0 100.845)"/>
      <path stroke-linecap="square" stroke-width="2.5" d="M28.1343284,44.5764683 L28.1343284,40.1488371" transform="matrix(1 0 0 -1 0 84.038)"/>
      <circle cx="28.5" cy="28.5" r="10.961" stroke-width="2.5"/>
    </g>
    <polygon fill="#FFF" points="29 29 67 12.985 67 67 12.894 67"/>
    <g stroke="#1F4B99" stroke-width="1.25" transform="translate(26 26)">
      <path fill="#FFF" d="M11.0103203,8.67816681 C10.9575725,8.65127577 10.8992069,8.63725661 10.84,8.63725661 C10.6328932,8.63725661 10.465,8.80514983 10.465,9.01225661 L10.465,40 C10.465,40.2071068 10.6328932,40.375 10.84,40.375 L30.1419834,40.375 C30.1453313,40.37499 30.1453313,40.37499 30.1486788,40.3749402 C30.3557526,40.3712425 30.5206214,40.2003784 30.5169237,39.9933046 L30.13582,18.6515 C30.1333458,18.5129436 30.0546604,18.3870461 29.9312001,18.3241055 L11.0103203,8.67816681 Z"/>
      <rect width="10.23" height="35.65" x=".625" y="4.725" fill="#FFF" rx="1"/>
      <path fill="#FFF" d="M27.8989319,4.725 C27.7046925,4.725 27.5426026,4.87332098 27.5254047,5.06679758 L24.4231825,39.9667976 C24.4222011,39.9778378 24.4217097,39.9889162 24.4217097,40 C24.4217097,40.2071068 24.5896029,40.375 24.7967097,40.375 L37.3710462,40.375 C37.38213,40.375 37.3932084,40.3745086 37.4042487,40.3735272 C37.6105421,40.35519 37.7629107,40.173091 37.7445735,39.9667976 L34.6423513,5.06679758 C34.6251533,4.87332098 34.4630635,4.725 34.268824,4.725 L27.8989319,4.725 Z"/>
      <path fill="#FFF" stroke-linecap="round" stroke-linejoin="round" d="M25.42 4.75848485L36.6515152 4.75848485M25.42 31.57L36.6515152 31.57"/>
      <rect width="3.67" height="9.41" x="3.905" y="8.005" fill="#FFF" rx="1"/>
      <rect width="7.77" height="13.51" x="13.745" y="26.865" fill="#FFF" rx="1"/>
      <rect width="3.67" height="9.41" x="3.905" y="20.305" fill="#FFF" rx="1"/>
      <path fill="#FFF" stroke-linecap="round" stroke-linejoin="round" d="M13.94 20.5L21.32 20.5M13.94 23.78L21.32 23.78M13.94 17.22L21.32 17.22"/>
      <path stroke-linecap="round" stroke-linejoin="round" d="M40.59,2.46 C39.366245,0.82 37.9995783,1.37667655e-14 36.49,1.37667655e-14 C34.2256325,1.37667655e-14 32.39,2.46 29.52,1.37667655e-14" transform="matrix(1 0 0 -1 0 2.46)"/>
    </g>
  </g>
</svg>
