<svg xmlns="http://www.w3.org/2000/svg" width="67" height="67" viewBox="0 0 67 67">
  <g fill="none" fill-rule="evenodd">
    <rect width="67" height="67" fill="#FFF"/>
    <g stroke="#1F4B99" transform="translate(1.866 1.866)">
      <circle cx="44.255" cy="12.011" r="5.7" stroke-width="2.5" transform="rotate(45 44.255 12.011)"/>
      <path stroke-linecap="square" stroke-width="2.5" d="M38.2094719,20.9071052 L38.2094719,15.2071633" transform="rotate(45 38.21 18.057)"/>
      <circle cx="44.255" cy="44.255" r="5.7" stroke-width="2.5" transform="rotate(135 44.255 44.255)"/>
      <path stroke-linecap="square" stroke-width="2.5" d="M38.2094719,41.0594429 L38.2094719,35.359501" transform="rotate(135 38.21 38.21)"/>
      <circle cx="12.378" cy="12.378" r="5.7" stroke-width="2.5" transform="scale(-1 1) rotate(45 0 -17.505)"/>
      <path stroke-linecap="square" stroke-width="2.5" d="M18.6221223,21.191256 L18.6221223,16.0529885" transform="scale(-1 1) rotate(45 0 -26.336)"/>
      <circle cx="12.378" cy="43.889" r="5.7" stroke-width="2.5" transform="scale(1 -1) rotate(-45 -93.579 0)"/>
      <path stroke-linecap="square" stroke-width="2.5" d="M18.6221223,40.2136177 L18.6221223,35.0753502" transform="scale(1 -1) rotate(-45 -72.26 0)"/>
      <circle cx="27.769" cy="5.846" r="5.846" stroke-width="2.5"/>
      <path stroke-linecap="square" stroke-width="2.5" d="M28.1343284,17.5382826 L28.1343284,12.0575693"/>
      <circle cx="50.423" cy="28.5" r="5.846" stroke-width="2.5" transform="rotate(90 50.423 28.5)"/>
      <path stroke-linecap="square" stroke-width="2.5" d="M42.0188021,31.4227563 L42.0188021,26.3074239" transform="rotate(90 42.019 28.865)"/>
      <circle cx="5.846" cy="28.5" r="5.846" stroke-width="2.5" transform="matrix(0 1 1 0 -22.654 22.654)"/>
      <path stroke-linecap="square" stroke-width="2.5" d="M14.6152355,31.7881372 L14.6152355,25.942043" transform="matrix(0 1 1 0 -14.25 14.25)"/>
      <circle cx="27.769" cy="50.423" r="5.846" stroke-width="2.5" transform="matrix(1 0 0 -1 0 100.845)"/>
      <path stroke-linecap="square" stroke-width="2.5" d="M28.1343284,44.5764683 L28.1343284,40.1488371" transform="matrix(1 0 0 -1 0 84.038)"/>
      <circle cx="28.5" cy="28.5" r="10.961" stroke-width="2.5"/>
    </g>
    <polygon fill="#FFF" points="29 29 67 12.985 67 67 12.894 67"/>
    <g stroke="#1F4B99" stroke-width="1.25" transform="translate(26 26)">
      <g transform="translate(5.766 12.492)">
        <rect width="30.781" height="24.375" x=".625" y=".625" fill="#FFF" rx="2"/>
        <g transform="translate(6.406 4.287)">
          <path stroke-linecap="round" stroke-linejoin="round" d="M0,0.197115385 L4.06985294,2.86638622 C4.06985294,9.27263622 4.06985294,13.0096154 4.06985294,14.0773237 C4.06985294,15.6788862 4.7332719,16.2127404 6.08723727,16.2127404 C6.98988084,16.2127404 10.7264268,16.2127404 17.296875,16.2127404"/>
          <path d="M4.10462952,5.32211538 L19.21875,6.85961538 C19.21875,7.21522639 19.21875,8.0080319 19.21875,9.2380319 C19.21875,11.1646154 18.3112559,13.0096154 13.7693293,13.0096154 C10.7413782,13.0096154 7.51981159,12.8265797 4.10462952,12.4605082 L4.10462952,5.32211538 Z"/>
          <circle cx="17.617" cy="17.174" r="1" fill="#FFF"/>
          <circle cx="8.008" cy="17.174" r="1" fill="#FFF"/>
        </g>
      </g>
      <path d="M20.5390625,-14.75 C20.3319557,-14.75 20.1640625,-14.5821068 20.1640625,-14.375 L20.1640625,22.703125 C20.1640625,22.9102318 20.3319557,23.078125 20.5390625,23.078125 L22.3828125,23.078125 C22.5899193,23.078125 22.7578125,22.9102318 22.7578125,22.703125 L22.7578125,-14.375 C22.7578125,-14.5821068 22.5899193,-14.75 22.3828125,-14.75 L20.5390625,-14.75 Z" transform="rotate(90 21.46 4.164)"/>
      <path stroke-linecap="round" stroke-linejoin="round" d="M9.9296875 6.0859375L9.9296875 14.8723856M33.6328125 6.0859375L33.6328125 14.8723856"/>
      <polyline stroke-linecap="round" stroke-linejoin="round" points="2.563 40.9 2.563 .32 0 .32 0 40.9"/>
    </g>
  </g>
</svg>
