<svg xmlns="http://www.w3.org/2000/svg" width="67" height="67" viewBox="0 0 67 67">
  <g fill="none" fill-rule="evenodd">
    <rect width="67" height="67" fill="#FFF"/>
    <g stroke="#1F4B99" transform="translate(1.866 1.866)">
      <circle cx="44.255" cy="12.011" r="5.7" stroke-width="2.5" transform="rotate(45 44.255 12.011)"/>
      <path stroke-linecap="square" stroke-width="2.5" d="M38.2094719,20.9071052 L38.2094719,15.2071633" transform="rotate(45 38.21 18.057)"/>
      <circle cx="44.255" cy="44.255" r="5.7" stroke-width="2.5" transform="rotate(135 44.255 44.255)"/>
      <path stroke-linecap="square" stroke-width="2.5" d="M38.2094719,41.0594429 L38.2094719,35.359501" transform="rotate(135 38.21 38.21)"/>
      <circle cx="12.378" cy="12.378" r="5.7" stroke-width="2.5" transform="scale(-1 1) rotate(45 0 -17.505)"/>
      <path stroke-linecap="square" stroke-width="2.5" d="M18.6221223,21.191256 L18.6221223,16.0529885" transform="scale(-1 1) rotate(45 0 -26.336)"/>
      <circle cx="12.378" cy="43.889" r="5.7" stroke-width="2.5" transform="scale(1 -1) rotate(-45 -93.579 0)"/>
      <path stroke-linecap="square" stroke-width="2.5" d="M18.6221223,40.2136177 L18.6221223,35.0753502" transform="scale(1 -1) rotate(-45 -72.26 0)"/>
      <circle cx="27.769" cy="5.846" r="5.846" stroke-width="2.5"/>
      <path stroke-linecap="square" stroke-width="2.5" d="M28.1343284,17.5382826 L28.1343284,12.0575693"/>
      <circle cx="50.423" cy="28.5" r="5.846" stroke-width="2.5" transform="rotate(90 50.423 28.5)"/>
      <path stroke-linecap="square" stroke-width="2.5" d="M42.0188021,31.4227563 L42.0188021,26.3074239" transform="rotate(90 42.019 28.865)"/>
      <circle cx="5.846" cy="28.5" r="5.846" stroke-width="2.5" transform="matrix(0 1 1 0 -22.654 22.654)"/>
      <path stroke-linecap="square" stroke-width="2.5" d="M14.6152355,31.7881372 L14.6152355,25.942043" transform="matrix(0 1 1 0 -14.25 14.25)"/>
      <circle cx="27.769" cy="50.423" r="5.846" stroke-width="2.5" transform="matrix(1 0 0 -1 0 100.845)"/>
      <path stroke-linecap="square" stroke-width="2.5" d="M28.1343284,44.5764683 L28.1343284,40.1488371" transform="matrix(1 0 0 -1 0 84.038)"/>
      <circle cx="28.5" cy="28.5" r="10.961" stroke-width="2.5"/>
    </g>
    <polygon fill="#FFF" points="29 29 67 12.985 67 67 12.894 67"/>
    <g stroke="#1F4B99" stroke-width="1.25" transform="translate(26 26)">
      <path stroke-linecap="round" stroke-linejoin="round" d="M0.543523776,32.1188198 L12.7679825,22.1426748 C19.395922,21.4587484 23.3523952,21.1167852 24.637402,21.1167852 C26.5649123,21.1167852 27.2693297,22.1426748 27.2693297,23.1283334 C27.2693297,24.5665905 26.5649123,25.0594198 24.637402,25.5522491 C22.4054407,26.122921 19.8247769,26.8345032 19.8186264,28.0566267 C19.8123764,29.2984917 20.5879682,30.5207734 21.7461366,30.5207734 C22.777964,30.5207734 24.7841023,30.6850498 27.7645515,31.0136027 C32.9166354,26.4138623 35.4926773,24.1139921 35.4926773,24.1139921 C38.8658203,20.6641868 42.4668719,24.6068214 39.5756065,27.0709681 C36.6843411,29.5351147 29.5241123,36.4347253 28.7283066,36.4347253 C27.932501,36.4347253 14.0360956,35.4490666 12.7679825,35.4490666 C12.7679825,35.4490666 7.28980968,40.8701892 7.28980968,40.8701892"/>
      <g fill="#FFF" transform="translate(11.844)">
        <ellipse cx="5.649" cy="5.777" rx="3.228" ry="3.301"/>
        <ellipse cx="21.789" cy="5.777" rx="3.228" ry="3.301"/>
        <path d="M16.8593395,18.3574675 C17.8066551,18.3574675 18.4885369,18.3574675 22.1920635,18.3574675 C25.8548662,18.3574675 26.5621106,18.3574675 27.4936294,18.3574675 C27.0893421,16.165425 27.0442343,15.9208524 26.5581005,13.2850518 C26.175361,11.2098515 24.3658654,9.70357143 22.255665,9.70357143 L21.8833407,9.70357143 C19.703895,9.70357143 17.8568176,11.3077014 17.551487,13.4656533 C17.1918163,16.0076579 17.158421,16.2436824 16.8593395,18.3574675 Z"/>
        <ellipse cx="13.719" cy="4.127" rx="4.035" ry="4.127"/>
        <path d="M0.719656994,18.3574675 C1.6669726,18.3574675 2.34885437,18.3574675 6.05238095,18.3574675 C9.71518368,18.3574675 10.4224281,18.3574675 11.3539469,18.3574675 C10.9496595,16.165425 10.9045518,15.9208524 10.418418,13.2850518 C10.0356785,11.2098515 8.22618285,9.70357143 6.11598244,9.70357143 L5.74365812,9.70357143 C3.56421251,9.70357143 1.71713509,11.3077014 1.41180443,13.4656533 C1.05213379,16.0076579 1.01873846,16.2436824 0.719656994,18.3574675 Z"/>
        <path d="M8.28513318,18.3574675 C9.34398,18.3574675 10.0323711,18.3574675 14.1222222,18.3574675 C18.1718226,18.3574675 18.8865852,18.3574675 19.928153,18.3574675 C19.4484265,15.7563954 19.4032444,15.5114197 18.8404056,12.4597272 C18.4576661,10.3845269 16.6481705,8.87824675 14.53797,8.87824675 L13.4259103,8.87824675 C11.2464647,8.87824675 9.39938725,10.4823768 9.09405659,12.6403287 C8.98033857,13.444041 8.98033857,13.444041 8.86662055,14.2477533 C8.75290253,15.0514656 8.75290253,15.0514656 8.63918451,15.855178 C8.45149106,17.1817183 8.41869317,17.4135204 8.28513318,18.3574675 Z"/>
      </g>
    </g>
  </g>
</svg>
