<svg xmlns="http://www.w3.org/2000/svg" width="67" height="67" viewBox="0 0 67 67">
  <g fill="none" fill-rule="evenodd">
    <rect width="67" height="67" fill="#FFF"/>
    <g stroke="#1F4B99" transform="translate(1.866 1.866)">
      <circle cx="44.255" cy="12.011" r="5.7" stroke-width="2.5" transform="rotate(45 44.255 12.011)"/>
      <path stroke-linecap="square" stroke-width="2.5" d="M38.2094719,20.9071052 L38.2094719,15.2071633" transform="rotate(45 38.21 18.057)"/>
      <circle cx="44.255" cy="44.255" r="5.7" stroke-width="2.5" transform="rotate(135 44.255 44.255)"/>
      <path stroke-linecap="square" stroke-width="2.5" d="M38.2094719,41.0594429 L38.2094719,35.359501" transform="rotate(135 38.21 38.21)"/>
      <circle cx="12.378" cy="12.378" r="5.7" stroke-width="2.5" transform="scale(-1 1) rotate(45 0 -17.505)"/>
      <path stroke-linecap="square" stroke-width="2.5" d="M18.6221223,21.191256 L18.6221223,16.0529885" transform="scale(-1 1) rotate(45 0 -26.336)"/>
      <circle cx="12.378" cy="43.889" r="5.7" stroke-width="2.5" transform="scale(1 -1) rotate(-45 -93.579 0)"/>
      <path stroke-linecap="square" stroke-width="2.5" d="M18.6221223,40.2136177 L18.6221223,35.0753502" transform="scale(1 -1) rotate(-45 -72.26 0)"/>
      <circle cx="27.769" cy="5.846" r="5.846" stroke-width="2.5"/>
      <path stroke-linecap="square" stroke-width="2.5" d="M28.1343284,17.5382826 L28.1343284,12.0575693"/>
      <circle cx="50.423" cy="28.5" r="5.846" stroke-width="2.5" transform="rotate(90 50.423 28.5)"/>
      <path stroke-linecap="square" stroke-width="2.5" d="M42.0188021,31.4227563 L42.0188021,26.3074239" transform="rotate(90 42.019 28.865)"/>
      <circle cx="5.846" cy="28.5" r="5.846" stroke-width="2.5" transform="matrix(0 1 1 0 -22.654 22.654)"/>
      <path stroke-linecap="square" stroke-width="2.5" d="M14.6152355,31.7881372 L14.6152355,25.942043" transform="matrix(0 1 1 0 -14.25 14.25)"/>
      <circle cx="27.769" cy="50.423" r="5.846" stroke-width="2.5" transform="matrix(1 0 0 -1 0 100.845)"/>
      <path stroke-linecap="square" stroke-width="2.5" d="M28.1343284,44.5764683 L28.1343284,40.1488371" transform="matrix(1 0 0 -1 0 84.038)"/>
      <circle cx="28.5" cy="28.5" r="10.961" stroke-width="2.5"/>
    </g>
    <polygon fill="#FFF" points="29 29 67 12.985 67 67 12.894 67"/>
    <g stroke="#1F4B99" stroke-width="1.25" transform="translate(25 27)">
      <rect width="8.397" height="14.025" x="1.625" y="12.978" rx="1"/>
      <rect width="27.5" height="6.789" x=".625" y="27.154" rx="1"/>
      <path d="M25.9044118,20.2056295 L15.912171,9.625 L10.5294118,9.625 C10.322305,9.625 10.1544118,9.79289322 10.1544118,10 L10.1544118,26.4901961 C10.1544118,26.6973029 10.322305,26.8651961 10.5294118,26.8651961 L25.5294118,26.8651961 C25.7365185,26.8651961 25.9044118,26.6973029 25.9044118,26.4901961 L25.9044118,20.2056295 Z"/>
      <circle cx="7.235" cy="34.569" r="4.02" fill="#FFF"/>
      <circle cx="20.902" cy="34.569" r="4.02" fill="#FFF"/>
      <polyline stroke-linecap="round" stroke-linejoin="round" points="41 34.971 28.137 34.971 28.137 .402"/>
      <rect width="10.005" height="11.613" x="30.37" y="23.135"/>
      <rect width="10.005" height="11.613" x="30.37" y="11.88"/>
      <rect width="10.005" height="11.613" x="30.37" y=".625"/>
      <circle cx="7.235" cy="34.569" r="1" fill="#1F4B99"/>
      <circle cx="20.902" cy="34.569" r="1" fill="#1F4B99"/>
    </g>
  </g>
</svg>
