<svg xmlns="http://www.w3.org/2000/svg" width="67" height="67" viewBox="0 0 67 67">
  <g fill="none" fill-rule="evenodd">
    <rect width="67" height="67" fill="#FFF"/>
    <g stroke="#1F4B99" transform="translate(1.866 1.866)">
      <circle cx="44.255" cy="12.011" r="5.7" stroke-width="2.5" transform="rotate(45 44.255 12.011)"/>
      <path stroke-linecap="square" stroke-width="2.5" d="M38.2094719,20.9071052 L38.2094719,15.2071633" transform="rotate(45 38.21 18.057)"/>
      <circle cx="44.255" cy="44.255" r="5.7" stroke-width="2.5" transform="rotate(135 44.255 44.255)"/>
      <path stroke-linecap="square" stroke-width="2.5" d="M38.2094719,41.0594429 L38.2094719,35.359501" transform="rotate(135 38.21 38.21)"/>
      <circle cx="12.378" cy="12.378" r="5.7" stroke-width="2.5" transform="scale(-1 1) rotate(45 0 -17.505)"/>
      <path stroke-linecap="square" stroke-width="2.5" d="M18.6221223,21.191256 L18.6221223,16.0529885" transform="scale(-1 1) rotate(45 0 -26.336)"/>
      <circle cx="12.378" cy="43.889" r="5.7" stroke-width="2.5" transform="scale(1 -1) rotate(-45 -93.579 0)"/>
      <path stroke-linecap="square" stroke-width="2.5" d="M18.6221223,40.2136177 L18.6221223,35.0753502" transform="scale(1 -1) rotate(-45 -72.26 0)"/>
      <circle cx="27.769" cy="5.846" r="5.846" stroke-width="2.5"/>
      <path stroke-linecap="square" stroke-width="2.5" d="M28.1343284,17.5382826 L28.1343284,12.0575693"/>
      <circle cx="50.423" cy="28.5" r="5.846" stroke-width="2.5" transform="rotate(90 50.423 28.5)"/>
      <path stroke-linecap="square" stroke-width="2.5" d="M42.0188021,31.4227563 L42.0188021,26.3074239" transform="rotate(90 42.019 28.865)"/>
      <circle cx="5.846" cy="28.5" r="5.846" stroke-width="2.5" transform="matrix(0 1 1 0 -22.654 22.654)"/>
      <path stroke-linecap="square" stroke-width="2.5" d="M14.6152355,31.7881372 L14.6152355,25.942043" transform="matrix(0 1 1 0 -14.25 14.25)"/>
      <circle cx="27.769" cy="50.423" r="5.846" stroke-width="2.5" transform="matrix(1 0 0 -1 0 100.845)"/>
      <path stroke-linecap="square" stroke-width="2.5" d="M28.1343284,44.5764683 L28.1343284,40.1488371" transform="matrix(1 0 0 -1 0 84.038)"/>
      <circle cx="28.5" cy="28.5" r="10.961" stroke-width="2.5"/>
    </g>
    <polygon fill="#FFF" points="29 29 67 12.985 67 67 11.894 67"/>
    <g stroke="#1F4B99" transform="translate(27 27)">
      <g stroke-width="1.25" transform="translate(0 7.42)">
        <path d="M5.89347594,12.1096575 C5.25621484,11.9746116 4.66174212,11.7237094 4.13313923,11.3800322 L3.5892689,11.9239025 C3.16305677,12.3501146 2.47203037,12.3501146 2.04581824,11.9239025 C1.6196061,11.4976904 1.6196061,10.806664 2.04581824,10.3804518 L2.58968856,9.83658151 C2.24601137,9.30797861 1.9951091,8.71350589 1.86006322,8.0762448 L1.09138443,8.0762448 C0.488629454,8.0762448 6.75015599e-14,7.58761535 6.75015599e-14,6.98486037 C6.75015599e-14,6.38210539 0.488629454,5.89347594 1.09138443,5.89347594 L1.86006322,5.89347594 C1.9951091,5.25621484 2.24601137,4.66174212 2.58968856,4.13313923 L2.04581824,3.5892689 C1.6196061,3.16305677 1.6196061,2.47203037 2.04581824,2.04581824 C2.47203037,1.6196061 3.16305677,1.6196061 3.5892689,2.04581824 L4.13313923,2.58968856 C4.66174212,2.24601137 5.25621484,1.9951091 5.89347594,1.86006322 L5.89347594,1.09138443 C5.89347594,0.488629454 6.38210539,1.10724293e-16 6.98486037,0 C7.58761535,-1.10724293e-16 8.0762448,0.488629454 8.0762448,1.09138443 L8.0762448,1.86006322 C8.71350589,1.9951091 9.30797861,2.24601137 9.83658151,2.58968856 L10.3804518,2.04581824 C10.806664,1.6196061 11.4976904,1.6196061 11.9239025,2.04581824 C12.3501146,2.47203037 12.3501146,3.16305677 11.9239025,3.5892689 L11.3800322,4.13313923 C11.7237094,4.66174212 11.9746116,5.25621484 12.1096575,5.89347594 L12.8783363,5.89347594 C13.4810913,5.89347594 13.9697207,6.38210539 13.9697207,6.98486037 C13.9697207,7.58761535 13.4810913,8.0762448 12.8783363,8.0762448 L12.1096575,8.0762448 C11.9746116,8.71350589 11.7237094,9.30797861 11.3800322,9.83658151 L11.9239025,10.3804518 C12.3501146,10.806664 12.3501146,11.4976904 11.9239025,11.9239025 C11.4976904,12.3501146 10.806664,12.3501146 10.3804518,11.9239025 L9.83658151,11.3800322 C9.30797861,11.7237094 8.71350589,11.9746116 8.0762448,12.1096575 L8.0762448,12.8783363 C8.0762448,13.4810913 7.58761535,13.9697207 6.98486037,13.9697207 C6.38210539,13.9697207 5.89347594,13.4810913 5.89347594,12.8783363 L5.89347594,12.1096575 Z"/>
        <circle cx="6.985" cy="6.985" r="3.492"/>
      </g>
      <g stroke-width="1.25" transform="translate(24.79 7.42)">
        <path d="M5.89347594,12.1096575 C5.25621484,11.9746116 4.66174212,11.7237094 4.13313923,11.3800322 L3.5892689,11.9239025 C3.16305677,12.3501146 2.47203037,12.3501146 2.04581824,11.9239025 C1.6196061,11.4976904 1.6196061,10.806664 2.04581824,10.3804518 L2.58968856,9.83658151 C2.24601137,9.30797861 1.9951091,8.71350589 1.86006322,8.0762448 L1.09138443,8.0762448 C0.488629454,8.0762448 -2.66453526e-13,7.58761535 -2.66453526e-13,6.98486037 C-2.66453526e-13,6.38210539 0.488629454,5.89347594 1.09138443,5.89347594 L1.86006322,5.89347594 C1.9951091,5.25621484 2.24601137,4.66174212 2.58968856,4.13313923 L2.04581824,3.5892689 C1.6196061,3.16305677 1.6196061,2.47203037 2.04581824,2.04581824 C2.47203037,1.6196061 3.16305677,1.6196061 3.5892689,2.04581824 L4.13313923,2.58968856 C4.66174212,2.24601137 5.25621484,1.9951091 5.89347594,1.86006322 L5.89347594,1.09138443 C5.89347594,0.488629454 6.38210539,1.10724293e-16 6.98486037,0 C7.58761535,-1.10724293e-16 8.0762448,0.488629454 8.0762448,1.09138443 L8.0762448,1.86006322 C8.71350589,1.9951091 9.30797861,2.24601137 9.83658151,2.58968856 L10.3804518,2.04581824 C10.806664,1.6196061 11.4976904,1.6196061 11.9239025,2.04581824 C12.3501146,2.47203037 12.3501146,3.16305677 11.9239025,3.5892689 L11.3800322,4.13313923 C11.7237094,4.66174212 11.9746116,5.25621484 12.1096575,5.89347594 L12.8783363,5.89347594 C13.4810913,5.89347594 13.9697207,6.38210539 13.9697207,6.98486037 C13.9697207,7.58761535 13.4810913,8.0762448 12.8783363,8.0762448 L12.1096575,8.0762448 C11.9746116,8.71350589 11.7237094,9.30797861 11.3800322,9.83658151 L11.9239025,10.3804518 C12.3501146,10.806664 12.3501146,11.4976904 11.9239025,11.9239025 C11.4976904,12.3501146 10.806664,12.3501146 10.3804518,11.9239025 L9.83658151,11.3800322 C9.30797861,11.7237094 8.71350589,11.9746116 8.0762448,12.1096575 L8.0762448,12.8783363 C8.0762448,13.4810913 7.58761535,13.9697207 6.98486037,13.9697207 C6.38210539,13.9697207 5.89347594,13.4810913 5.89347594,12.8783363 L5.89347594,12.1096575 Z"/>
        <circle cx="6.985" cy="6.985" r="3.492"/>
      </g>
      <g stroke-width="1.252" transform="translate(12.629)">
        <path d="M5.89347594,12.1096575 C5.25621484,11.9746116 4.66174212,11.7237094 4.13313923,11.3800322 L3.5892689,11.9239025 C3.16305677,12.3501146 2.47203037,12.3501146 2.04581824,11.9239025 C1.6196061,11.4976904 1.6196061,10.806664 2.04581824,10.3804518 L2.58968856,9.83658151 C2.24601137,9.30797861 1.9951091,8.71350589 1.86006322,8.0762448 L1.09138443,8.0762448 C0.488629454,8.0762448 -1.61648472e-13,7.58761535 -1.61648472e-13,6.98486037 C-1.61648472e-13,6.38210539 0.488629454,5.89347594 1.09138443,5.89347594 L1.86006322,5.89347594 C1.9951091,5.25621484 2.24601137,4.66174212 2.58968856,4.13313923 L2.04581824,3.5892689 C1.6196061,3.16305677 1.6196061,2.47203037 2.04581824,2.04581824 C2.47203037,1.6196061 3.16305677,1.6196061 3.5892689,2.04581824 L4.13313923,2.58968856 C4.66174212,2.24601137 5.25621484,1.9951091 5.89347594,1.86006322 L5.89347594,1.09138443 C5.89347594,0.488629454 6.38210539,1.10724293e-16 6.98486037,0 C7.58761535,-1.10724293e-16 8.0762448,0.488629454 8.0762448,1.09138443 L8.0762448,1.86006322 C8.71350589,1.9951091 9.30797861,2.24601137 9.83658151,2.58968856 L10.3804518,2.04581824 C10.806664,1.6196061 11.4976904,1.6196061 11.9239025,2.04581824 C12.3501146,2.47203037 12.3501146,3.16305677 11.9239025,3.5892689 L11.3800322,4.13313923 C11.7237094,4.66174212 11.9746116,5.25621484 12.1096575,5.89347594 L12.8783363,5.89347594 C13.4810913,5.89347594 13.9697207,6.38210539 13.9697207,6.98486037 C13.9697207,7.58761535 13.4810913,8.0762448 12.8783363,8.0762448 L12.1096575,8.0762448 C11.9746116,8.71350589 11.7237094,9.30797861 11.3800322,9.83658151 L11.9239025,10.3804518 C12.3501146,10.806664 12.3501146,11.4976904 11.9239025,11.9239025 C11.4976904,12.3501146 10.806664,12.3501146 10.3804518,11.9239025 L9.83658151,11.3800322 C9.30797861,11.7237094 8.71350589,11.9746116 8.0762448,12.1096575 L8.0762448,12.8783363 C8.0762448,13.4810913 7.58761535,13.9697207 6.98486037,13.9697207 C6.38210539,13.9697207 5.89347594,13.4810913 5.89347594,12.8783363 L5.89347594,12.1096575 Z"/>
        <circle cx="6.985" cy="6.985" r="3.492"/>
      </g>
      <circle cx="20.58" cy="23.001" r="3.742" stroke-width="1.25"/>
      <path stroke-linecap="round" stroke-linejoin="round" stroke-width="1.25" d="M14.3425579,28.305974 L14.3425579,28.1350611 L20.4888502,27.3648767 L20.6507839,27.3657276 L26.3504902,28.1408764 L26.3504902,28.3045339 C26.4030147,28.3347259 26.454376,28.3673685 26.5044304,28.4024169 L30.4041027,31.1329968 L34.3037749,28.4024169 C35.2213469,27.759926 36.4860278,27.9829234 37.1285187,28.9004955 C37.7710096,29.8180675 37.5480122,31.0827484 36.6304401,31.7252393 L31.6495285,35.2129112 C31.2704463,35.4783474 30.8199352,35.6031012 30.4410767,35.5762668 C29.9882701,35.6031012 29.537759,35.4783474 29.1586768,35.2129112 L26.3504902,33.2465977 L26.3504902,39.8210779 L14.3425579,39.8210779 L14.3425579,33.2483491 L11.5368725,35.2129112 C11.1577904,35.4783474 10.7072792,35.6031012 10.3284207,35.5762668 C9.87561413,35.6031012 9.42510299,35.4783474 9.04602086,35.2129112 L4.06510918,31.7252393 C3.14753712,31.0827484 2.92453976,29.8180675 3.56703063,28.9004955 C4.20952151,27.9829234 5.47420239,27.759926 6.39177445,28.4024169 L10.2914467,31.1329968 L14.1911189,28.4024169 C14.2403781,28.3679252 14.2909034,28.3357634 14.3425579,28.305974 Z"/>
    </g>
  </g>
</svg>
