<svg xmlns="http://www.w3.org/2000/svg" width="33" height="29" viewBox="0 0 33 29">
  <path fill="#4580E6" d="M6.72824985,28.6933087 L9.59148783,12.9018717 L14.1750255,12.9018717 L13.835529,28.7745472 L6.72824985,28.6933087 Z M10.8222673,6.96018067 L12.3077109,0 L14.6418959,0 L14.4721477,6.96018067 L10.8222673,6.96018067 Z M25.1246667,28.6933087 L18.0173876,28.7745472 L17.6778075,12.9018717 L22.2614287,12.9018717 L25.1246667,28.6933087 Z M21.0306493,6.96018067 L17.3807689,6.96018067 L17.2110206,0 L19.5452056,0 L21.0306493,6.96018067 Z M16.2121811,9.03980011 L32,9.03980011 L32,11.0344769 L29.6658207,11.0344769 C29.6658207,11.0344769 28.435008,10.9071556 28.435008,12.6896512 L28.435008,15.1936121 L26.525191,15.1936121 C26.525191,15.1936121 26.31301,12.6471899 25.8885858,11.8408647 C25.4642234,11.0344735 24.7851568,10.9920156 24.7851568,10.9920156 L7.21484234,10.9920156 C7.21484234,10.9920156 6.53577571,11.0344769 6.11141338,11.8408647 C5.68698921,12.6471899 5.47480804,15.1936121 5.47480804,15.1936121 L3.56499121,15.1936121 L3.56499121,12.6896512 C3.56499121,10.9071556 2.33417833,11.0344769 2.33417833,11.0344769 L0,11.0344769 L0,9.03980011 L16.2121811,9.03980011 Z" transform="translate(.667)"/>
</svg>
