<svg xmlns="http://www.w3.org/2000/svg" width="34" height="31" viewBox="0 0 34 31">
  <path fill="#4580E6" d="M11.4823529 9.60846714C10.2330353 10.5097377 8.70927059 10.9488907 7.17176471 10.8508201L3.57647059 10.8508201 3.57647059 16.9496436 0 16.9496436 0 .00846714514 7.39764706.00846714514C8.86607059-.0694622667 10.3122823.392655381 11.4635294 1.30729068 12.5566118 2.36479657 13.1164235 3.85769067 12.9882353 5.37317303 13.1546353 6.94023185 12.6006588 8.49806714 11.4823529 9.60846714zM8.73411765 3.50964361C8.19011765 3.11077303 7.52545882 2.91143185 6.85176471 2.94493773L3.57647059 2.94493773 3.57647059 7.93317303 6.81411765 7.93317303C7.49402353 7.96912597 8.16376471 7.7549142 8.69647059 7.3308201 9.17816471 6.82729067 9.42437647 6.14343185 9.37411765 5.44846714 9.47256471 4.73787891 9.23632941 4.02183185 8.73411765 3.50964361zM21.0044578 28.4464062L18.4955422 28.4464053C18.4985034 28.3813079 18.5 28.3158287 18.5 28.25 18.5 25.9027898 16.5972102 24 14.25 24 11.9027898 24 10 25.9027898 10 28.25 10 28.3158276 10.0014966 28.3813057 10.0044576 28.446402L9.66714483 28.4464019C7.89983791 28.4464019 6.46715258 27.0137165 6.46715258 25.2464096 6.46715341 25.2436147 6.46715341 25.2436147 6.46715746 25.2408198 6.47289758 21.9547947 6.47142867 19.5320931 6.4627616 17.9738472 6.45241399 16.11346 7.7454131 15.0188948 9.41176471 15.0188948 10.1270588 15.0188948 10.1270588 15.0188948 11.1435294 15.0188948 11.5791597 15.0188948 11.5791597 15.0188948 11.9910822 15.0188948 12.038204 15.0188948 12.0829281 15.0188948 12.1254107 15.0188948 12.1317135 14.5868269 12.1320344 14.5666005 12.1346301 14.4030099 12.1186414 13.0661603 12.2740022 12.3205995 12.8683393 11.7862896 13.4037295 11.3049729 13.7861577 11.2541889 15.0588235 11.2541889 16.4027396 11.2541889 16.4027396 11.2541889 19.633097 11.2541889 23.806675 11.2541889 23.806675 11.2541889 29.8667187 11.2541889 31.634006 11.2542299 33.0666669 12.6869032 33.0666669 14.4541889L33.0666669 25.2464096C33.0666669 27.0137207 31.633978 28.4464096 29.8666665 28.4464096L29.4955421 28.4464095C29.4985033 28.3813107 29.5 28.3158301 29.5 28.25 29.5 25.9027898 27.5972102 24 25.25 24 22.9027898 24 21 25.9027898 21 28.25 21 28.315829 21.0014967 28.3813085 21.0044578 28.4464062zM14.25 31C12.7312169 31 11.5 29.7687831 11.5 28.25 11.5 26.7312169 12.7312169 25.5 14.25 25.5 15.7687831 25.5 17 26.7312169 17 28.25 17 29.7687831 15.7687831 31 14.25 31zM25.25 31C23.7312169 31 22.5 29.7687831 22.5 28.25 22.5 26.7312169 23.7312169 25.5 25.25 25.5 26.7687831 25.5 28 26.7312169 28 28.25 28 29.7687831 26.7687831 31 25.25 31z"/>
</svg>
