<svg xmlns="http://www.w3.org/2000/svg" width="34" height="34" viewBox="0 0 34 34">
  <g fill="#4580E6">
    <path d="M31.0666667,11.5796283 L31.0666667,33.3333333 L3.06666667,33.3333333 L3.06666667,11.4907393 L1.5547002,12.498717 C1.09517151,12.8050695 0.474302166,12.6808956 0.167949706,12.2213669 C-0.138402753,11.7618382 -0.0142288856,11.1409689 0.445299803,10.8346164 L16.4452998,0.167949706 C16.7811992,-0.0559832355 17.2188008,-0.0559832355 17.5547002,0.167949706 L33.5547002,10.8346164 C34.0142289,11.1409689 34.1384028,11.7618382 33.8320503,12.2213669 C33.5256978,12.6808956 32.9048285,12.8050695 32.4452998,12.498717 L31.0666667,11.5796283 Z M5.06666667,10.157406 L5.06666667,31.3333333 L29.0666667,31.3333333 L29.0666667,10.2462949 L17,2.20185043 L5.06666667,10.157406 Z"/>
    <g transform="translate(7.4 13.8)">
      <path d="M0.369087723,1.1776 L9.59628079,6.4 L18.8234739,1.28 C19.0886265,1.154432 19.235671,0.8992 19.1925616,0.64 C19.1925616,0.286592 18.8620066,0 18.4543861,0 L0.738175445,0 C0.330554965,0 0,0.286592 0,0.64 C0.00383851232,0.86336 0.144387117,1.06816 0.369087723,1.1776 Z"/>
      <polygon points="0 3.2 0 13.2 19.2 13.2 19.2 3.2 9.6 8.7"/>
    </g>
  </g>
</svg>
