<?xml version="1.0" encoding="UTF-8"?>
<svg width="16px" height="16px" viewBox="0 0 16 16" version="1.1" xmlns="http://www.w3.org/2000/svg" xmlns:xlink="http://www.w3.org/1999/xlink">
    <!-- Generator: Sketch 52.6 (67491) - http://www.bohemiancoding.com/sketch -->
    <title>presentation/light</title>
    <desc>Created with Sketch.</desc>
    <g id="presentation/light" stroke="none" stroke-width="1" fill="none" fill-rule="evenodd">
        <g id="presentation" fill="#F5F8FA" fill-rule="nonzero">
            <path d="M15,1 L9,1 C9,0.45 8.55,0 8,0 C7.45,0 7,0.45 7,1 L1,1 C0.45,1 0,1.45 0,2 C0,2.55 0.45,3 1,3 L1,11 C1,11.55 1.45,12 2,12 L5.59,12 L3.3,14.29 C3.11,14.47 3,14.72 3,15 C3,15.55 3.45,16 4,16 C4.28,16 4.53,15.89 4.71,15.71 L7,13.41 L7,15 C7,15.55 7.45,16 8,16 C8.55,16 9,15.55 9,15 L9,13.41 L11.29,15.7 C11.47,15.89 11.72,16 12,16 C12.55,16 13,15.55 13,15 C13,14.72 12.89,14.47 12.71,14.29 L10.41,12 L14,12 C14.55,12 15,11.55 15,11 L15,3 C15.55,3 16,2.55 16,2 C16,1.45 15.55,1 15,1 Z M13,10 L3,10 L3,3 L13,3 L13,10 Z" id="Shape"></path>
        </g>
    </g>
</svg>