<?xml version="1.0" encoding="UTF-8"?>
<svg width="16px" height="16px" viewBox="0 0 16 16" version="1.1" xmlns="http://www.w3.org/2000/svg" xmlns:xlink="http://www.w3.org/1999/xlink">
    <!-- Generator: Sketch 52.6 (67491) - http://www.bohemiancoding.com/sketch -->
    <title>Shape</title>
    <desc>Created with Sketch.</desc>
    <g id="Page-1" stroke="none" stroke-width="1" fill="none" fill-rule="evenodd">
        <g id="properties" fill="#F5F8FA" fill-rule="nonzero">
            <path d="M2,6 C0.9,6 0,6.9 0,8 C0,9.1 0.9,10 2,10 C3.1,10 4,9.1 4,8 C4,6.9 3.1,6 2,6 Z M6,3 L15,3 C15.55,3 16,2.55 16,2 C16,1.45 15.55,1 15,1 L6,1 C5.45,1 5,1.45 5,2 C5,2.55 5.45,3 6,3 Z M2,12 C0.9,12 0,12.9 0,14 C0,15.1 0.9,16 2,16 C3.1,16 4,15.1 4,14 C4,12.9 3.1,12 2,12 Z M15,7 L6,7 C5.45,7 5,7.45 5,8 C5,8.55 5.45,9 6,9 L15,9 C15.55,9 16,8.55 16,8 C16,7.45 15.55,7 15,7 Z M15,13 L6,13 C5.45,13 5,13.45 5,14 C5,14.55 5.45,15 6,15 L15,15 C15.55,15 16,14.55 16,14 C16,13.45 15.55,13 15,13 Z M2,0 C0.9,0 0,0.9 0,2 C0,3.1 0.9,4 2,4 C3.1,4 4,3.1 4,2 C4,0.9 3.1,0 2,0 Z" id="Shape"></path>
        </g>
    </g>
</svg>