<svg xmlns="http://www.w3.org/2000/svg" width="21" height="32" viewBox="0 0 21 32">
  <path fill="#4580E6" d="M20.3636364,30.5454545 C20.3636364,31.3486545 19.7122909,32 18.9090909,32 C18.3784727,31.9915636 17.8964364,31.6887273 17.6581818,31.2145455 L17.6581818,31.2145455 L16.5527273,29.0909091 L3.81090909,29.0909091 L2.73454545,31.2436364 L2.73454545,31.2436364 C2.48349091,31.7157818 1.98923636,32.0078545 1.45454545,32 C0.651345455,32 0,31.3486545 0,30.5454545 C0.0064,30.2990545 0.0765090909,30.0584727 0.203636364,29.8472727 L0.203636364,29.8472727 L3.11272727,24.0290909 L3.11272727,24.0290909 C3.35883636,23.5659636 3.83941818,23.2756364 4.36363636,23.2727273 C5.16392727,23.2043636 5.86821818,23.7978182 5.93658182,24.5981091 C5.95752727,24.8413091 5.9168,25.0859636 5.81818182,25.3090909 L5.26545455,26.1818182 L15.0981818,26.1818182 L14.5454545,25.3090909 C14.2519273,24.5614545 14.6199273,23.7172364 15.3675636,23.4234182 C16.0407273,23.1589818 16.8061091,23.4295273 17.1636364,24.0581818 L17.1636364,24.0581818 L20.0727273,29.8763636 L20.0727273,29.8763636 C20.2260364,30.0704 20.3264,30.3010909 20.3636364,30.5454545 Z M17.4545455,0 L2.90909091,0 C1.3024,0 0,1.3024 0,2.90909091 L0,17.4545455 C0,19.0612364 1.3024,20.3636364 2.90909091,20.3636364 L17.4545455,20.3636364 C19.0612364,20.3636364 20.3636364,19.0612364 20.3636364,17.4545455 L20.3636364,2.90909091 C20.3636364,1.3024 19.0612364,0 17.4545455,0 Z M4.36363636,17.4545455 C3.56043636,17.4545455 2.90909091,16.8032 2.90909091,16 C2.90909091,15.1968 3.56043636,14.5454545 4.36363636,14.5454545 C5.16683636,14.5454545 5.81818182,15.1968 5.81818182,16 C5.81818182,16.8032 5.16683636,17.4545455 4.36363636,17.4545455 Z M4.36363636,11.6363636 C3.56043636,11.6363636 2.90909091,10.9850182 2.90909091,10.1818182 L2.90909091,4.36363636 C2.90909091,3.56043636 3.56043636,2.90909091 4.36363636,2.90909091 L9.57090909,2.90909091 L9.57090909,11.6363636 L4.36363636,11.6363636 Z M16,17.4545455 C15.1968,17.4545455 14.5454545,16.8032 14.5454545,16 C14.5454545,15.1968 15.1968,14.5454545 16,14.5454545 C16.8032,14.5454545 17.4545455,15.1968 17.4545455,16 C17.4545455,16.8032 16.8032,17.4545455 16,17.4545455 Z M17.4545455,10.1818182 C17.4545455,10.9850182 16.8032,11.6363636 16,11.6363636 L10.7345455,11.6363636 L10.7345455,2.90909091 L16,2.90909091 C16.8032,2.90909091 17.4545455,3.56043636 17.4545455,4.36363636 L17.4545455,10.1818182 Z"/>
</svg>
