<svg xmlns="http://www.w3.org/2000/svg" width="21" height="32" viewBox="0 0 21 32">
  <path fill="#4580E6" d="M2.15026461,0 L0.0169312776,11.7333333 C-0.295388722,13.4506667 3.81746461,14.2528 3.75026461,16 L3.21693128,29.8666667 C3.13501128,31.9985067 5.35026461,32 5.35026461,32 C5.35026461,32 7.56551794,31.9985067 7.48359794,29.8666667 L6.95026461,16 C6.88327794,14.2557867 10.6481846,13.48096 10.6835979,11.7333333 L8.55026461,0 L7.48359794,0 L8.01693128,8.53333333 L6.41693128,9.6 L5.88359794,0 L4.81693128,0 L4.28359794,9.6 L2.68359794,8.53333333 L3.21693128,0 L2.15026461,0 Z M20.2835979,0 C18.7126113,0 16.0933046,1.39712 15.0460513,3.49162667 C14.1733046,5.06261333 13.8835979,8.57216 13.8835979,10.6666667 L13.8835979,16 C13.8835979,17.7454933 16.2108513,18.1333333 17.0835979,18.1333333 L16.0169313,29.8666667 C15.8238646,31.9912533 18.1502646,32 18.1502646,32 C18.1502646,32 20.2835979,32 20.2835979,29.8666667 L20.2835979,0 Z"/>
</svg>
