<svg xmlns="http://www.w3.org/2000/svg" width="67" height="65" viewBox="0 0 67 65">
  <g fill="none" fill-rule="evenodd">
    <rect width="67" height="65" fill="#FFF"/>
    <g stroke="#1F4B99" stroke-width="2" transform="translate(2 1)">
      <path stroke-linecap="round" stroke-linejoin="round" d="M0.83517068,49.3533085 L19.6190951,34.02411 C29.8034899,32.9731987 35.8829487,32.4477431 37.8574714,32.4477431 C40.8192554,32.4477431 41.9016529,34.02411 41.9016529,35.5386587 C41.9016529,37.7486634 40.8192554,38.5059377 37.8574714,39.2632121 C34.4278722,40.1400982 30.4624621,41.233505 30.4530112,43.111402 C30.4434077,45.0196336 31.6351707,46.8977737 33.4147953,46.8977737 C35.0002861,46.8977737 38.0828889,47.1501985 42.6626036,47.655048 C50.5792202,40.5871543 54.5375286,37.0532074 54.5375286,37.0532074 C59.7206507,31.752287 65.2539739,37.8104817 60.8112978,41.5968534 C56.3686217,45.383225 45.3663189,55.9850657 44.1434956,55.9850657 C42.9206723,55.9850657 21.5676591,54.470517 19.6190951,54.470517 C19.6190951,54.470517 11.2014149,62.8005347 11.2014149,62.8005347"/>
      <g fill="#FFF" transform="translate(18.2)">
        <ellipse cx="8.68" cy="8.877" rx="4.96" ry="5.073"/>
        <ellipse cx="33.48" cy="8.877" rx="4.96" ry="5.073"/>
        <path d="M25.9514512,28.1681818 C26.3218057,28.1681818 26.8600306,28.1681818 27.70625,28.1681818 C30.6125,28.1681818 30.6125,28.1681818 34.1,28.1681818 C37.5875,28.1681818 37.5875,28.1681818 40.49375,28.1681818 C41.3027534,28.1681818 41.8302572,28.1681818 42.1986991,28.1681818 C41.8894662,26.491532 41.8184052,26.1062415 41.3906609,23.787027 C40.8776983,21.0057617 40.8776983,21.0057617 40.3647357,18.2244964 C40.0148025,16.3271704 38.3604065,14.95 36.4310804,14.95 L31.2955815,14.95 C29.3029455,14.95 27.614189,16.4166332 27.3350295,18.3896177 C26.620477,23.4397818 26.5669227,23.8182814 25.9514512,28.1681818 Z"/>
        <ellipse cx="21.08" cy="6.341" rx="6.2" ry="6.341"/>
        <path d="M1.15145119,28.1681818 C1.5218057,28.1681818 2.06003058,28.1681818 2.90625,28.1681818 C5.8125,28.1681818 5.8125,28.1681818 9.3,28.1681818 C12.7875,28.1681818 12.7875,28.1681818 15.69375,28.1681818 C16.5027534,28.1681818 17.0302572,28.1681818 17.3986991,28.1681818 C17.0894662,26.491532 17.0184052,26.1062415 16.5906609,23.787027 C16.0776983,21.0057617 16.0776983,21.0057617 15.5647357,18.2244964 C15.2148025,16.3271704 13.5604065,14.95 11.6310804,14.95 L6.49558145,14.95 C4.50294546,14.95 2.81418897,16.4166332 2.53502951,18.3896177 C2.07156205,21.6652156 2.07156205,21.6652156 1.60809459,24.9408135 C1.36490786,26.6595576 1.31312546,27.0255344 1.15145119,28.1681818 Z"/>
        <path d="M12.7764512,28.1681818 C13.1794065,28.1681818 13.7808382,28.1681818 14.7734375,28.1681818 C17.921875,28.1681818 17.921875,28.1681818 21.7,28.1681818 C25.478125,28.1681818 25.478125,28.1681818 28.6265625,28.1681818 C29.5790395,28.1681818 30.1713329,28.1681818 30.5736991,28.1681818 C29.6434342,23.1243178 29.5710443,22.7318224 28.5058386,16.9563145 C28.1559054,15.0589886 26.5015094,13.6818182 24.5721833,13.6818182 L18.3000177,13.6818182 C16.3073817,13.6818182 14.6186252,15.1484513 14.3394658,17.1214359 C13.9083838,20.1681463 13.9083838,20.1681463 13.4773019,23.2148567 C13.1079987,25.82494 13.0550735,26.1989936 12.7764512,28.1681818 Z"/>
      </g>
    </g>
  </g>
</svg>
