<?xml version="1.0" encoding="UTF-8" standalone="no"?>
<!-- Created with Inkscape (http://www.inkscape.org/) -->

<svg
   xmlns:dc="http://purl.org/dc/elements/1.1/"
   xmlns:cc="http://creativecommons.org/ns#"
   xmlns:rdf="http://www.w3.org/1999/02/22-rdf-syntax-ns#"
   xmlns:svg="http://www.w3.org/2000/svg"
   xmlns="http://www.w3.org/2000/svg"
   xmlns:sodipodi="http://sodipodi.sourceforge.net/DTD/sodipodi-0.dtd"
   xmlns:inkscape="http://www.inkscape.org/namespaces/inkscape"
   width="155"
   height="155"
   viewBox="0 0 41.010418 41.010418"
   version="1.1"
   id="svg8"
   inkscape:version="0.92.3 (2405546, 2018-03-11)"
   sodipodi:docname="terravisu-logo.svg"
   inkscape:export-filename="/home/jeremie/Code/visu-front/src/images/terravisu-logo.png"
   inkscape:export-xdpi="200"
   inkscape:export-ydpi="200">
  <defs
     id="defs2" />
  <sodipodi:namedview
     id="base"
     pagecolor="#ffffff"
     bordercolor="#666666"
     borderopacity="1.0"
     inkscape:pageopacity="0.0"
     inkscape:pageshadow="2"
     inkscape:zoom="1.979899"
     inkscape:cx="262.01879"
     inkscape:cy="150.65724"
     inkscape:document-units="mm"
     inkscape:current-layer="layer1"
     showgrid="false"
     inkscape:window-width="1853"
     inkscape:window-height="1052"
     inkscape:window-x="67"
     inkscape:window-y="0"
     inkscape:window-maximized="1"
     units="px" />
  <metadata
     id="metadata5">
    <rdf:RDF>
      <cc:Work
         rdf:about="">
        <dc:format>image/svg+xml</dc:format>
        <dc:type
           rdf:resource="http://purl.org/dc/dcmitype/StillImage" />
        <dc:title></dc:title>
      </cc:Work>
    </rdf:RDF>
  </metadata>
  <g
     inkscape:label="Calque 1"
     inkscape:groupmode="layer"
     id="layer1"
     transform="translate(0,-255.98957)">
    <path
       inkscape:connector-curvature="0"
       id="path823"
       d="m 18.188326,296.25831 c -2.463789,-0.31452 -4.580421,-0.95737 -6.693151,-2.03277 C 5.6272054,291.23871 1.5444566,285.35504 0.77586135,278.77789 0.63864768,277.6037 0.62213163,275.55496 0.74113665,274.47042 1.6870371,265.85014 8.023079,258.79159 16.357386,257.07341 c 1.950898,-0.40217 4.462805,-0.5312 6.349862,-0.32615 4.579852,0.49761 8.711365,2.52249 11.962851,5.86305 3.106607,3.19171 4.933185,6.9526 5.581782,11.49273 0.145658,1.01961 0.123085,3.91745 -0.03875,4.97624 -0.672307,4.39847 -2.486558,8.15888 -5.409443,11.21226 -3.08038,3.21784 -6.82447,5.14076 -11.470079,5.8908 -1.035468,0.16722 -4.078909,0.21205 -5.145275,0.076 z m 4.869526,-1.17 c 3.618336,-0.52681 6.999358,-2.06815 9.763573,-4.451 5.032618,-4.33828 7.382341,-11.37544 6.014653,-18.01326 -1.423014,-6.90636 -6.891686,-12.58431 -13.782335,-14.3098 -1.717215,-0.43001 -2.441902,-0.51154 -4.528045,-0.50933 -1.862053,0.001 -2.331871,0.0422 -3.739795,0.31995 -3.588592,0.70804 -7.0225512,2.59238 -9.6681379,5.30525 -2.8463239,2.9187 -4.512683,6.2785 -5.147443,10.37849 -0.1953414,1.26171 -0.2351744,3.66464 -0.08017,4.83623 0.8065024,6.09587 4.2212176,11.217 9.5020649,14.2505 2.166452,1.24445 5.122025,2.12398 7.847931,2.33542 0.734412,0.057 3.038527,-0.0289 3.817704,-0.14237 z m -1.908854,-5.49567 c 0,-3.46226 0.0195,-4.28869 0.102262,-4.32045 0.288099,-0.11075 2.996932,0.24853 4.629509,0.61388 1.093595,0.24471 1.456462,0.36907 1.483282,0.50837 0.05398,0.2803 -1.803709,2.86367 -3.262243,4.53657 -0.763376,0.87555 -2.789613,2.94278 -2.884436,2.94278 -0.03842,0 -0.06838,-1.8762 -0.06838,-4.28115 z m -2.035152,3.51897 c -1.777516,-1.86972 -3.694013,-4.43961 -4.739549,-6.35532 l -0.330333,-0.6053 0.260718,-0.10758 c 0.788538,-0.32524 3.427854,-0.75728 4.740681,-0.77602 l 0.81808,-0.0113 0.0202,4.20693 c 0.0111,2.31383 -0.01,4.23689 -0.04628,4.27347 -0.03667,0.0369 -0.360929,-0.2432 -0.723461,-0.62454 z m -2.240564,0.48174 c -2.580575,-0.56519 -5.19511,-1.82841 -7.3313628,-3.54229 -0.8857814,-0.71059 -1.5172802,-1.36073 -1.4412962,-1.48382 0.1534335,-0.24852 4.429137,-2.08999 4.653022,-2.004 0.06385,0.0246 0.248102,0.2844 0.409463,0.57744 0.9835,1.7862 2.447389,3.86943 3.923621,5.58367 0.43447,0.50451 0.789949,0.93445 0.789949,0.95538 0,0.0678 -0.493647,0.0252 -1.003396,-0.0863 z m 6.535179,0.0397 c 0,-0.0505 0.236657,-0.34195 0.525904,-0.64745 1.674847,-1.76908 3.527097,-4.17562 4.493682,-5.83839 0.124208,-0.21367 0.271783,-0.37046 0.348696,-0.37046 0.291428,0 3.951501,1.57688 4.171707,1.79731 0.10068,0.10093 -0.487853,0.69879 -1.476058,1.49986 -2.029845,1.64545 -4.322511,2.78189 -6.856289,3.39858 -0.956953,0.23288 -1.207642,0.26621 -1.207642,0.16059 z M 6.3983122,286.76462 c -1.4510327,-1.97344 -2.469838,-4.28103 -2.9704749,-6.72817 -0.207055,-1.0121 -0.3939324,-2.63741 -0.3241711,-2.81941 0.03608,-0.094 0.57727,-0.11138 3.5026819,-0.11138 2.6750284,0 3.4774649,0.023 3.5369499,0.0976 0.04232,0.0535 0.100647,0.3958 0.12964,0.7604 0.158964,1.99995 0.734404,4.3427 1.578675,6.42719 0.329488,0.81348 0.370402,1.05997 0.175963,1.05997 -0.19781,0 -2.2218969,0.84237 -3.4928592,1.45361 -0.7457719,0.35868 -1.4005365,0.65214 -1.4550299,0.65214 -0.054499,0 -0.361108,-0.35639 -0.6813626,-0.79195 z m 26.7881538,0.51579 c -0.766774,-0.36956 -2.545906,-1.15252 -3.194407,-1.40575 -0.299965,-0.11707 -0.57624,-0.24044 -0.613949,-0.27393 -0.03792,-0.0334 0.115114,-0.47295 0.342393,-0.98276 1.002655,-2.24919 1.575788,-4.31666 1.7998,-6.49245 0.08749,-0.84982 0.113738,-0.94982 0.258476,-0.98498 0.08858,-0.0206 1.493391,-0.0294 3.121759,-0.0184 l 2.960672,0.0206 0.02465,0.38997 c 0.06165,0.97519 -0.466756,3.62834 -1.003761,5.03996 -0.755966,1.98718 -2.580296,4.9969 -3.015713,4.97519 -0.074,-0.001 -0.379959,-0.12501 -0.679921,-0.26955 z m -5.562835,-2.22619 c -0.831639,-0.33296 -3.60544,-0.86028 -5.305946,-1.00872 -0.578498,-0.0505 -1.078111,-0.10797 -1.110249,-0.1278 -0.03215,-0.0206 -0.05844,-1.53923 -0.05844,-3.3766 0,-2.97429 0.01361,-3.34584 0.12325,-3.388 0.196686,-0.0755 8.864047,-0.0523 8.98459,0.0242 0.09184,0.0582 0.09431,0.20194 0.01564,0.91519 -0.211397,1.91714 -0.728558,3.8255 -1.56081,5.75961 -0.581543,1.35148 -0.617051,1.39073 -1.088023,1.20215 z m -14.332464,-0.44171 c -0.251379,-0.49787 -0.836494,-2.12193 -1.088833,-3.02217 -0.415864,-1.48365 -0.762286,-3.54335 -0.701772,-4.17252 l 0.02625,-0.27296 4.081575,-0.0206 c 2.967774,-0.0129 4.110783,0.004 4.188618,0.0688 0.08832,0.0735 0.10351,0.67047 0.08673,3.41278 l -0.02043,3.32393 -1.090772,0.0959 c -1.416131,0.12464 -2.934039,0.36544 -4.101215,0.65072 -0.513467,0.1254 -1.000855,0.22814 -1.083097,0.22814 -0.0946,0 -0.203776,-0.10759 -0.29719,-0.29249 z m -10.1803695,-8.8349 c -0.07614,-0.12337 0.1091936,-1.71779 0.3244402,-2.7913 0.4680639,-2.33429 1.6001682,-4.90694 2.9933938,-6.80228 0.6527719,-0.88801 0.4583335,-0.8801 2.1052083,-0.0858 0.7890997,0.38062 1.8729862,0.85987 2.4086312,1.06499 0.53565,0.20514 1.016562,0.41167 1.068699,0.45899 0.07335,0.0667 0.0069,0.30151 -0.293301,1.03893 -0.676912,1.66204 -1.225757,3.84132 -1.400256,5.55996 -0.04567,0.44986 -0.101598,1.00221 -0.124268,1.22738 l -0.0412,0.40945 H 6.6562835 c -2.3159053,0 -3.5126061,-0.027 -3.5454846,-0.0804 z m 8.3706815,-0.0166 c -0.04555,-0.70079 0.151566,-2.29666 0.444203,-3.59615 0.226384,-1.00535 0.854666,-2.93557 1.17381,-3.60627 0.265077,-0.55709 0.182708,-0.54961 1.816514,-0.16427 1.30563,0.30799 3.348154,0.60023 4.195359,0.60023 0.86319,0 0.796141,-0.30461 0.772565,3.50957 l -0.02043,3.31464 -4.187791,0.0206 c -3.321711,0.0166 -4.189112,-1.6e-4 -4.194174,-0.078 z m 9.686178,-3.31414 0.0202,-3.41096 1.14976,-0.0956 c 1.424557,-0.11808 3.035975,-0.39626 4.461782,-0.76989 0.598912,-0.1569 1.165382,-0.30259 1.258832,-0.32369 0.204559,-0.0462 0.376659,0.26305 0.955381,1.7165 0.468462,1.17649 0.73967,2.06197 0.979128,3.19671 0.207657,0.98401 0.404225,2.76529 0.327313,2.9659 -0.04664,0.12172 -0.401837,0.13187 -4.611652,0.13187 h -4.561139 z m 10.473547,3.35894 c -0.02857,-0.0285 -0.05196,-0.21387 -0.05196,-0.41179 0,-0.59397 -0.226154,-2.24579 -0.438371,-3.20179 -0.272755,-1.22871 -0.662977,-2.41186 -1.217347,-3.69095 -0.262143,-0.60486 -0.437408,-1.10672 -0.399184,-1.14304 0.03748,-0.0355 0.471335,-0.22951 0.964131,-0.4307 0.492795,-0.20123 1.440341,-0.62566 2.105652,-0.94319 0.665318,-0.31754 1.249475,-0.57737 1.298134,-0.57737 0.234323,0 1.688016,2.22454 2.318955,3.54862 0.896478,1.88133 1.510384,4.1744 1.650049,6.1633 l 0.05189,0.73889 H 34.80814 c -1.713255,0 -3.138383,-0.0233 -3.166952,-0.0519 z m -13.374963,-8.11079 c -0.858362,-0.0928 -2.094573,-0.29342 -2.839015,-0.46065 -1.266492,-0.28454 -1.446169,-0.34128 -1.446169,-0.45689 0,-0.17274 1.206029,-2.11472 1.933112,-3.11255 1.244261,-1.70763 3.623654,-4.41924 3.877815,-4.41924 0.09593,0 0.108893,0.59872 0.09163,4.23102 l -0.0202,4.23102 -0.662255,0.007 c -0.364241,0.004 -0.784968,-0.004 -0.934947,-0.0206 z m 2.9347,-2.8e-4 c -0.08624,-0.0862 -0.06196,-8.44904 0.02447,-8.44904 0.141243,0 1.669462,1.36843 2.445008,2.18931 0.422616,0.44735 1.113256,1.24177 1.534747,1.7654 0.845221,1.05003 2.353438,3.27502 2.309473,3.40707 -0.121521,0.3649 -6.020496,1.38076 -6.313706,1.08727 z m -9.33527,-1.50583 c -1.400895,-0.5311 -3.732086,-1.61302 -3.8350829,-1.77982 -0.1032931,-0.16723 1.6228752,-1.65812 2.8718819,-2.48027 1.714993,-1.12888 4.127695,-2.1475 5.883433,-2.4839 0.364241,-0.0699 0.741142,-0.14384 0.837557,-0.16446 0.0964,-0.0206 0.175298,-8.8e-4 0.175298,0.0438 0,0.0447 -0.390279,0.52806 -0.86728,1.07387 -1.464657,1.6759 -2.685986,3.37518 -3.71216,5.16486 -0.305171,0.53228 -0.519953,0.82469 -0.61355,0.83544 -0.07923,0.008 -0.412254,-0.0852 -0.740104,-0.2095 z m 16.712794,-0.33343 c -1.506919,-2.39953 -2.895939,-4.17794 -4.583866,-5.86885 -0.576121,-0.57714 -0.608126,-0.62564 -0.426808,-0.64693 0.304248,-0.0356 2.237585,0.4876 3.216037,0.87057 2.040064,0.79849 3.639417,1.7885 5.429893,3.36114 0.42788,0.3758 0.777963,0.72733 0.777963,0.78114 0,0.16225 -3.725206,1.83438 -4.086357,1.83438 -0.06529,0 -0.212385,-0.14918 -0.326862,-0.33145 z"
       style="fill:#0078fa;stroke-width:0.99999994" />
    <path
       style="fill:#0078fa;stroke-width:0.99999988"
       d="m 18.9197,249.26375 c -1.182618,-0.15097 -2.198602,-0.45953 -3.212712,-0.97572 -2.816626,-1.43369 -4.776345,-4.25785 -5.145271,-7.41488 -0.06586,-0.56361 -0.07379,-1.547 -0.01667,-2.06758 0.454033,-4.13774 3.495333,-7.52584 7.4958,-8.35057 0.936431,-0.19304 2.142147,-0.25497 3.047934,-0.15655 2.198329,0.23885 4.181455,1.2108 5.742169,2.81426 1.491171,1.53203 2.367928,3.33725 2.679255,5.51652 0.06992,0.48941 0.05908,1.88037 -0.0186,2.38859 -0.322707,2.11127 -1.193548,3.91626 -2.596532,5.38188 -1.478583,1.54457 -3.275746,2.46757 -5.505638,2.82759 -0.497025,0.0803 -1.957876,0.10178 -2.469733,0.0365 z m 2.337373,-0.5616 c 1.736801,-0.25286 3.359692,-0.99271 4.686515,-2.13647 2.415657,-2.08238 3.543523,-5.46022 2.887033,-8.64637 -0.683046,-3.31505 -3.308009,-6.04047 -6.61552,-6.86871 -0.824263,-0.2064 -1.172113,-0.24553 -2.173462,-0.24447 -0.893786,5e-4 -1.119299,0.0203 -1.795102,0.15357 -1.722524,0.33986 -3.370824,1.24434 -4.640706,2.54653 -1.366235,1.40097 -2.166088,3.01367 -2.470773,4.98167 -0.09376,0.60562 -0.112883,1.75903 -0.03848,2.32139 0.387122,2.92602 2.026185,5.38416 4.560992,6.84024 1.039896,0.59734 2.458571,1.01951 3.767006,1.121 0.352518,0.0274 1.458493,-0.0139 1.832498,-0.0683 z m -0.91625,-2.63792 c 0,-1.66188 0.0094,-2.05857 0.04909,-2.07381 0.138287,-0.0532 1.438527,0.11929 2.222164,0.29466 0.524926,0.11746 0.699102,0.17715 0.711975,0.24402 0.02591,0.13454 -0.86578,1.37456 -1.565876,2.17755 -0.366421,0.42026 -1.339014,1.41253 -1.38453,1.41253 -0.01844,0 -0.03282,-0.90057 -0.03282,-2.05495 z m -0.976873,1.68911 c -0.853208,-0.89747 -1.773126,-2.13101 -2.274984,-3.05056 l -0.158559,-0.29054 0.125144,-0.0516 c 0.378498,-0.15611 1.64537,-0.36349 2.275527,-0.37249 l 0.392679,-0.005 0.0097,2.01933 c 0.0053,1.11064 -0.0048,2.03371 -0.02222,2.05126 -0.0176,0.0177 -0.173246,-0.11673 -0.347261,-0.29977 z m -1.075471,0.23124 c -1.238676,-0.2713 -2.493653,-0.87764 -3.519054,-1.70031 -0.425175,-0.34108 -0.728295,-0.65314 -0.691822,-0.71223 0.07365,-0.11929 2.125986,-1.00319 2.23345,-0.96192 0.03065,0.0118 0.119089,0.13651 0.196543,0.27717 0.47208,0.85738 1.174746,1.85733 1.883338,2.68017 0.208545,0.24216 0.379175,0.44853 0.379175,0.45858 0,0.0325 -0.23695,0.0121 -0.48163,-0.0414 z m 3.136886,0.019 c 0,-0.0242 0.113596,-0.16413 0.252434,-0.31077 0.803927,-0.84916 1.693007,-2.0043 2.156968,-2.80243 0.05962,-0.10256 0.130455,-0.17782 0.167374,-0.17782 0.139885,0 1.89672,0.7569 2.002419,0.86271 0.04833,0.0485 -0.23417,0.33542 -0.708508,0.71993 -0.974325,0.78982 -2.074805,1.33531 -3.291019,1.63132 -0.459337,0.11178 -0.579668,0.12778 -0.579668,0.0771 z m -8.164871,-3.29684 c -0.696496,-0.94725 -1.185523,-2.05489 -1.425828,-3.22952 -0.09939,-0.48581 -0.189088,-1.26596 -0.155602,-1.35332 0.01732,-0.0451 0.277089,-0.0535 1.681287,-0.0535 1.284013,0 1.669183,0.0111 1.697736,0.0469 0.02031,0.0257 0.04831,0.18999 0.06223,0.36499 0.0763,0.95998 0.352514,2.0845 0.757765,3.08505 0.158154,0.39048 0.177792,0.50879 0.08446,0.50879 -0.09495,0 -1.066511,0.40434 -1.676573,0.69773 -0.35797,0.17217 -0.672257,0.31303 -0.698414,0.31303 -0.02616,0 -0.173332,-0.17107 -0.327054,-0.38014 z m 12.858314,0.24758 c -0.368052,-0.17739 -1.222035,-0.55321 -1.533316,-0.67476 -0.143983,-0.0562 -0.276595,-0.11541 -0.294695,-0.13148 -0.0182,-0.0161 0.05525,-0.22702 0.164348,-0.47173 0.481275,-1.07961 0.756379,-2.07199 0.863904,-3.11637 0.04199,-0.40792 0.05459,-0.45592 0.124069,-0.47279 0.04252,-0.01 0.716828,-0.0141 1.498444,-0.009 l 1.421123,0.01 0.01183,0.18718 c 0.02959,0.46809 -0.224043,1.74161 -0.481806,2.41918 -0.362863,0.95385 -1.238541,2.39851 -1.447542,2.38809 -0.03552,-5e-4 -0.18238,-0.06 -0.326362,-0.12938 z m -2.670161,-1.06857 c -0.399187,-0.15982 -1.730611,-0.41293 -2.546854,-0.48419 -0.277679,-0.0242 -0.517493,-0.0518 -0.53292,-0.0613 -0.01543,-0.01 -0.02805,-0.73883 -0.02805,-1.62076 0,-1.42766 0.0065,-1.60601 0.05916,-1.62624 0.09441,-0.0362 4.254742,-0.0251 4.312603,0.0116 0.04408,0.028 0.04527,0.0969 0.0075,0.4393 -0.101471,0.92022 -0.349708,1.83624 -0.749189,2.76461 -0.279141,0.64871 -0.296184,0.66755 -0.52225,0.57703 z m -6.879583,-0.21202 c -0.120662,-0.23898 -0.401517,-1.01852 -0.52264,-1.45064 -0.199615,-0.71215 -0.365897,-1.70081 -0.33685,-2.00281 l 0.0126,-0.13102 1.959155,-0.01 c 1.424532,-0.006 1.973177,0.002 2.010537,0.033 0.04239,0.0353 0.04968,0.32183 0.04163,1.63814 l -0.0098,1.59548 -0.523571,0.0461 c -0.679743,0.0598 -1.408338,0.1754 -1.968583,0.31234 -0.246464,0.0602 -0.48041,0.1095 -0.519886,0.1095 -0.04541,0 -0.09781,-0.0516 -0.142651,-0.14039 z m -4.886577,-4.24075 c -0.03655,-0.0592 0.05241,-0.82454 0.155731,-1.33982 0.224671,-1.12047 0.768081,-2.35534 1.436829,-3.2651 0.31333,-0.42625 0.22,-0.42245 1.0105,-0.0412 0.378768,0.1827 0.899033,0.41274 1.156143,0.5112 0.257112,0.0985 0.48795,0.1976 0.512976,0.22031 0.03521,0.032 0.0033,0.14473 -0.140785,0.49869 -0.324918,0.79778 -0.588364,1.84383 -0.672123,2.66878 -0.02193,0.21593 -0.04877,0.48106 -0.05965,0.58914 l -0.01978,0.19654 H 13.38432 c -1.111635,0 -1.686051,-0.0129 -1.701833,-0.0386 z m 4.017927,-0.008 c -0.02187,-0.33638 0.07275,-1.1024 0.213217,-1.72615 0.108664,-0.48257 0.41024,-1.40908 0.563429,-1.73101 0.127237,-0.2674 0.0877,-0.26381 0.871927,-0.0789 0.626702,0.14783 1.607114,0.28811 2.013772,0.28811 0.414332,0 0.382148,-0.14622 0.370831,1.68459 l -0.0098,1.59103 -2.01014,0.01 c -1.594421,0.008 -2.010774,-7e-5 -2.013203,-0.0375 z m 4.649365,-1.59079 0.0097,-1.63726 0.551884,-0.0459 c 0.683788,-0.0567 1.457268,-0.1902 2.141656,-0.36955 0.287477,-0.0753 0.559383,-0.14524 0.604239,-0.15537 0.09819,-0.0222 0.180796,0.12627 0.458583,0.82392 0.224862,0.56471 0.355041,0.98974 0.469981,1.53442 0.09968,0.47233 0.194028,1.32734 0.15711,1.42363 -0.02238,0.0584 -0.192881,0.0633 -2.213592,0.0633 h -2.189347 z m 5.027303,1.61229 c -0.01371,-0.0137 -0.02494,-0.10265 -0.02494,-0.19765 0,-0.28511 -0.108554,-1.07799 -0.210418,-1.53687 -0.130922,-0.58978 -0.318229,-1.15769 -0.584326,-1.77165 -0.125829,-0.29033 -0.209956,-0.53123 -0.191609,-0.54866 0.01799,-0.017 0.226241,-0.11016 0.462783,-0.20674 0.236542,-0.0966 0.691364,-0.30031 1.010713,-0.45273 0.319352,-0.15242 0.599748,-0.27714 0.623104,-0.27714 0.112475,0 0.810248,1.06778 1.113099,1.70334 0.430309,0.90304 0.724984,2.00372 0.792023,2.95839 l 0.02491,0.35467 h -1.495212 c -0.822362,0 -1.506423,-0.0112 -1.520137,-0.0249 z M 18.9571,235.5533 c -0.412014,-0.0445 -1.005396,-0.14084 -1.362728,-0.22111 -0.607916,-0.13658 -0.694161,-0.16381 -0.694161,-0.2193 0,-0.0829 0.578894,-1.01507 0.927894,-1.49403 0.597245,-0.81966 1.739354,-2.12123 1.861351,-2.12123 0.04604,0 0.05227,0.28738 0.04398,2.03089 l -0.0097,2.03088 -0.317883,0.004 c -0.174836,0.002 -0.376785,-0.002 -0.448774,-0.01 z m 1.408656,-1.3e-4 c -0.04139,-0.0414 -0.02974,-4.05554 0.01175,-4.05554 0.0678,0 0.801342,0.65685 1.173603,1.05087 0.202856,0.21473 0.534363,0.59605 0.736679,0.84739 0.405706,0.50402 1.12965,1.57201 1.108547,1.63539 -0.05833,0.17516 -2.889838,0.66277 -3.030579,0.52189 z m -4.48093,-0.7228 c -0.67243,-0.25493 -1.791401,-0.77425 -1.84084,-0.85431 -0.04958,-0.0803 0.77898,-0.7959 1.378504,-1.19053 0.823196,-0.54186 1.981293,-1.0308 2.824047,-1.19227 0.174836,-0.0336 0.355748,-0.0691 0.402028,-0.0789 0.04627,-0.01 0.08414,-4.2e-4 0.08414,0.021 0,0.0215 -0.187334,0.25347 -0.416295,0.51546 -0.703035,0.80443 -1.289273,1.62009 -1.781837,2.47913 -0.146482,0.2555 -0.249577,0.39585 -0.294503,0.40101 -0.03803,0.004 -0.197883,-0.0409 -0.355251,-0.10056 z m 8.022141,-0.16005 c -0.723321,-1.15177 -1.390051,-2.0054 -2.200256,-2.81704 -0.276537,-0.27703 -0.2919,-0.30031 -0.204867,-0.31053 0.146039,-0.0171 1.07404,0.23405 1.543697,0.41787 0.979231,0.38328 1.746921,0.85849 2.606349,1.61335 0.205382,0.18039 0.373422,0.34912 0.373422,0.37495 0,0.0779 -1.788099,0.8805 -1.961451,0.8805 -0.03134,0 -0.101945,-0.0716 -0.156894,-0.1591 z"
       id="path832"
       inkscape:connector-curvature="0"
       inkscape:export-filename="/home/jeremie/Code/visu-front/public/favicon.png"
       inkscape:export-xdpi="96"
       inkscape:export-ydpi="96" />
    <text
       xml:space="preserve"
       style="font-style:normal;font-variant:normal;font-weight:normal;font-stretch:normal;font-size:18.67559433px;line-height:1.25;font-family:Roboto;-inkscape-font-specification:'Roboto, Normal';font-variant-ligatures:normal;font-variant-caps:normal;font-variant-numeric:normal;font-feature-settings:normal;text-align:start;letter-spacing:0px;word-spacing:0px;writing-mode:lr-tb;text-anchor:start;fill:#000000;fill-opacity:1;stroke:none;stroke-width:0.26458332"
       x="41.394566"
       y="244.37221"
       id="text836"><tspan
         sodipodi:role="line"
         id="tspan834"
         x="41.394566"
         y="244.37221"
         style="font-style:normal;font-variant:normal;font-weight:normal;font-stretch:normal;font-size:18.67559433px;font-family:Roboto;-inkscape-font-specification:'Roboto, Normal';font-variant-ligatures:normal;font-variant-caps:normal;font-variant-numeric:normal;font-feature-settings:normal;text-align:start;writing-mode:lr-tb;text-anchor:start;stroke-width:0.26458332">TerraVisu</tspan></text>
  </g>
</svg>
