<svg xmlns="http://www.w3.org/2000/svg" width="67" height="65" viewBox="0 0 67 65">
  <g fill="none" fill-rule="evenodd">
    <rect width="67" height="65" fill="#FFF"/>
    <g stroke="#1F4B99" stroke-width="2">
      <rect width="17" height="40.039" x="1" y="19.392" rx="1"/>
      <rect width="17" height="41.353" x="49" y="19.392" rx="1"/>
      <rect width="30.843" height="57.118" x="18.078" y="7.569" rx="1"/>
      <rect width="20.333" height="6" x="23.333" y="1" rx="1"/>
      <path stroke-linecap="round" stroke-linejoin="round" d="M23.1539065,13.1372549 L43.6565507,13.1372549"/>
      <path stroke-linecap="round" stroke-linejoin="round" d="M0.820573152,0.744444444 L21.3232174,0.744444444" transform="translate(22.333 19.706)"/>
      <path stroke-linecap="round" stroke-linejoin="round" d="M.509325214.744444444L8.18596248.744444444M47.8034429.744444444L55.4800801.744444444M18.3921569.744444444L38.8948011.744444444" transform="translate(5.255 26.275)"/>
      <path stroke-linecap="round" stroke-linejoin="round" d="M.509325214.744444444L8.18596248.744444444M47.8034429.744444444L55.4800801.744444444M17.8990045.744444444L38.4016488.744444444" transform="translate(5.255 32.843)"/>
      <path stroke-linecap="round" stroke-linejoin="round" d="M.509325214.744444444L8.18596248.744444444M47.8034429.744444444L55.4800801.744444444M17.8990045.744444444L38.4016488.744444444" transform="translate(5.255 39.412)"/>
      <path stroke-linecap="round" stroke-linejoin="round" d="M.509325214.744444444L8.18596248.744444444M47.8034429.744444444L55.4800801.744444444M17.8990045.744444444L38.4016488.744444444" transform="translate(5.255 45.98)"/>
      <g stroke-linecap="round" stroke-linejoin="round" transform="translate(5.255 51.235)">
        <path d="M.509325214 1.31372549L8.18596248 1.31372549M47.8034429 1.31372549L55.4800801 1.31372549"/>
        <polygon points="18.524 1.314 38.098 1.314 38.098 13.137 18.392 13.137"/>
      </g>
      <path stroke-linecap="round" stroke-linejoin="round" d="M33.4052286,52.5490196 L33.5,64.372549"/>
    </g>
  </g>
</svg>
